<?xml version="1.0" encoding="utf-8"?>
<!-- Generator: Adobe Illustrator 25.0.1, SVG Export Plug-In . SVG Version: 6.00 Build 0)  -->
<svg version="1.0" id="Layer_1" xmlns="http://www.w3.org/2000/svg" xmlns:xlink="http://www.w3.org/1999/xlink" x="0px" y="0px"
	 viewBox="0 0 858 517.6" style="enable-background:new 0 0 858 517.6;" xml:space="preserve">
<style type="text/css">
	.st0{fill:#49B546;}
	.st1{fill:#E54D42;}
	.st2{fill:#E27C32;}
	.st3{fill:#175BA6;}
	.st4{fill:#0A5191;}
</style>
<path class="st0" d="M213.9,206.3c-0.1,7.7-3.2,14.2-8.5,19.6c-6,6-13.5,9.7-21.1,13.1c-6.6,2.9-13.6,4.8-20.6,6.5
	c-7.6,1.9-15.6,2.1-23.4,3c-2.6,0.3-2.5-1.5-2-3.3c1.8-5.4,3.9-10.6,6.4-15.7c6.9-15,15.9-28.4,29.8-38c7.3-5.1,15.4-7.1,24.2-4.9
	C208.2,188.9,213.9,196.6,213.9,206.3z"/>
<path class="st1" d="M81,317.2c-8.6,0.4-15-2.9-19.1-10.2c-5-8.8-3.1-17.2,2.2-25c5.8-8.7,14.3-14.3,23.6-18.7
	c12.2-5.7,25.1-9.1,38.3-11.4c0.6-0.1,1.2-0.2,1.8-0.2c4.3-0.4,5.1,0.7,3.9,4.8c-2.5,8.8-6,17.1-9.7,25.4
	c-4.2,9.4-10.4,17.4-17.3,24.9S90.3,317.2,81,317.2z"/>
<path class="st2" d="M126,247.4c-9.3-1.3-18.7-1.6-28-3.6c-8.5-1.9-16.8-4.9-24.6-9c-7.9-4-14.5-9.6-17.8-18
	c-6.1-15.7,5.2-30.6,22-29.4c8.6,0.6,16,4.3,22.3,9.8c8.7,7.6,16,16.5,21.6,26.5c3.4,6,6.4,12.1,9.2,18.4c2.1,4.7,1.7,5.3-3.3,5.3
	L126,247.4z"/>
<path class="st3" d="M229.8,312.2c0.7,12.4-12.9,21.7-25.6,19.4c-10.3-1.9-18-8-24.8-15.5c-11.4-12.7-18.6-27.8-24.1-43.8
	c-0.8-2.4-0.8-4,2.4-3.7c21.2,2.3,41.9,6.5,59.4,19.8C224.5,294.1,229.7,301.2,229.8,312.2z"/>
<path class="st4" d="M611.5,276.2c0-9.1-0.5-18.2,1.2-27.2c1.6-8.5,7.9-18.6,20.5-20.8c11.6-2.1,22.1,1.6,28.1,10.6
	c8.2,12.4,6.9,31.2-2.9,42.3c-6.8,7.8-20,9.1-28.4,2.9c-0.7-0.5-1.3-1.7-2.3-1.3s-0.6,1.7-0.6,2.6c-0.1,5.1-0.1,10.2,0,15.3
	c0,2.8-0.9,4-3.9,4c-7.2,0.1-11.4-3.7-11.6-11.3C611.4,287.6,611.5,281.9,611.5,276.2z M651.3,258.6c0-4.5-0.3-8.6-2.4-12.3
	c-2.3-4.1-6.2-5.1-10.5-5.2c-4,0-7.2,1.7-9,5.2c-3.7,6.9-3.6,15.3,0.2,22.1c2.6,4.4,7.6,6.8,12.7,5.9c4-0.6,7.3-4.2,8.4-9
	C651.2,263.1,651.4,260.8,651.3,258.6z"/>
<path class="st4" d="M515.1,288c-3.5-0.3-8.1-0.5-12.5-2.3c-6.8-2.7-10.4-10.2-8.4-17.3c0.7-2.3,1.9-0.9,2.9-0.2
	c5.6,4.3,12.5,6.4,19.6,6.1c1.9-0.1,3.8-0.4,5.6-0.9c4.1-1.1,6.2-3.9,6.2-8s-1.1-5.8-5.8-7.3c-4.5-1.4-9.1-2.4-13.7-3.7
	c-10.2-2.8-16.3-9-16.7-17c-0.4-9.6,5.2-18.5,14-22.4c9.1-3.7,18.4-4.1,27.6-0.3c6.6,2.6,10.1,9.8,8.2,16.6
	c-0.4,1.6-1.1,1.5-2.2,0.6c-7.1-6.4-15.6-6.7-24.4-5.3c-2.3,0.3-4.3,1.5-5.8,3.2c-3.3,3.8-2.4,8.4,2.1,10.5
	c3.5,1.7,7.3,2.8,11.1,3.5c4,0.6,7.8,2,11.4,3.9c8.8,5,12.1,14.8,8.6,24.5c-4.2,11.6-13.6,14.9-24.6,15.8
	C517.5,288,516.8,288,515.1,288z"/>
<path class="st4" d="M450.5,252.2c3-3.8,5.4-6.8,7.9-9.8c1.4-1.7,3.1-3.3,4.4-5.1c5.1-7.4,12.3-9.4,20.8-8.5
	c1.1,0.1,2.7-0.5,3.1,0.9c0.4,1.2-0.9,2.1-1.7,2.9c-6.4,6.3-12.2,13.2-18.1,20c-2,2.2-2,3.8,0,6c5,5.6,9.3,11.9,15.2,16.7
	c1.3,1.2,2.8,2.2,4.5,2.8c2.8,0.9,2.7,2.4,1.5,4.5c-2.9,4.9-10.2,5.9-16.1,1.9c-4.3-2.9-7.2-7.2-10.4-11c-3.5-4.1-6.7-8.5-10.1-12.8
	c-1.4,1.3-0.9,2.7-0.9,3.9c-0.1,6.1-0.1,12.3,0,18.5c0,2.4-0.8,3.4-3.3,3.5c-7.5,0.3-10.7-2.2-11.7-9.6c-0.1-1.2-0.2-2.4-0.2-3.5
	c0-19.5,0-39,0-58.5c0-5.1,0.2-5.3,5.1-5.2c6.8,0.1,10,3.3,10,10.1c0,9.2,0,18.5,0,27.7V252.2z"/>
<path class="st4" d="M406.1,275c5.1-0.3,10.1-0.8,14.5-3.8c2.4-1.6,3.3-1,3.3,1.9c0.1,7-3,11.5-10.6,13.5c-9.1,2.4-18,1.8-26.2-3.5
	c-8.9-5.8-12.7-14.3-12.7-24.4c0-8.9,2.1-17.3,8.9-23.9c9.2-9,25.3-10.1,35-1.7c5.6,4.6,8.4,11.8,7.4,19c-0.3,4.5-3.4,8.3-7.8,9.6
	c-7.5,2.5-15.3,2.8-23.1,2.8c-1.4,0-3.5-0.8-4.1,1c-0.5,1.5,0.8,2.9,1.8,4C396.1,273.8,400.8,275.2,406.1,275z M399.1,253.2
	c2.3-0.1,5.2,0.2,8-0.7c2.1-0.7,4.5-1.2,4.7-4.1c0.2-2.7-1-5.2-3.3-6.6c-6-3.9-15.4-0.6-17.6,6.1c-1.4,4-0.6,5.2,3.6,5.2
	C395.7,253.2,397.1,253.2,399.1,253.2L399.1,253.2z"/>
<path class="st4" d="M703.4,275.1c7.1-0.1,12-1,16.2-3.8c2.7-1.8,3.2-0.5,3.3,2c0.1,6.8-2.8,10.9-9.3,13
	c-14.7,4.9-29.9-0.5-36.8-13.2s-3.6-30.9,7.7-40c10.9-8.9,30.6-7.6,37.8,6.5c1.9,3.6,2.7,7.6,2.5,11.6c-0.4,6.8-4.9,10.8-12.7,12
	c-6.4,1-12.9,1.4-19.4,1.3c-1,0-2.3-0.4-2.9,0.7s0.3,2.3,1,3.2C693.5,272.7,698.3,275.3,703.4,275.1z M698.3,253.1
	c2.7-0.1,5.9,0.2,9-0.9s3.9-3.2,3.1-6.2c-0.5-2.5-2.4-4.5-4.9-5.2c-6.5-1.5-12.9-0.6-15.8,7.4c-1.3,3.7-0.6,4.8,3.2,4.9
	C694.5,253.2,696.2,253.1,698.3,253.1L698.3,253.1z"/>
<path class="st4" d="M582.2,275c5.9,0.1,10.9-0.9,15.3-3.7c1.9-1.2,2.7-1,2.9,1.4c0.6,6.4-2,10.9-7.8,13.2
	c-13.9,5.6-30,0.8-37.4-12.2c-6.4-11.2-5.3-22.9,1-33.8c5.6-9.7,15-12.9,25.8-12.4c12.8,0.6,22.6,13.1,20.4,25.7
	c-0.8,4.4-3.5,7.1-7.6,8.5c-7.3,2.5-14.8,2.6-22.4,2.8c-1.6,0-4.1-1-4.7,1.1c-0.5,1.9,1.2,3.7,2.7,5.1
	C573.4,273.8,577.7,275.3,582.2,275z M575.3,253.1v0.1c2.5,0,4.9-0.2,7.4-0.6c2.4-0.4,5.2-0.9,5.5-4.1c0.4-2.9-1-5.7-3.6-7.2
	c-5.9-3.6-15.6,0.2-17.4,6.8c-1,3.6-0.2,4.8,3.5,4.8C572.3,253.2,573.8,253.1,575.3,253.1L575.3,253.1z"/>
<path class="st4" d="M225.8,250c0.1-16.4,8.1-29.5,22.5-35c9.4-3.6,19.1-4.4,28.5,0.5c5.4,2.8,8.9,11,7.2,16.5
	c-0.7,2.4-1.9,0.8-2.8,0c-5.4-4.9-12-6.6-19-6.1c-15.6,1-22.5,12.9-20.9,27.5c0.4,5,2.4,9.7,5.6,13.6c6.1,7.1,14.2,7.4,22.5,6.2
	c4-0.5,7.8-2.1,11-4.5c0.7-0.6,1.4-1.5,2.5-0.8c1,0.6,0.7,1.7,0.8,2.6c0.4,7.5-2.7,12.2-10,14.8c-20.9,7.4-47.4-5.6-47.8-33.1
	C225.8,251.5,225.8,250.7,225.8,250z"/>
<path class="st4" d="M368.8,242.9c0,0.8,0,1.5,0,2.3s0.4,1.8-0.5,2.3c-1.1,0.7-1.6-0.5-2.3-1.1c-9-7.4-23.2-5.1-27.3,4.6
	c-4.5,10.7,2.5,23.5,14.5,22.7c4.6-0.3,8.9-1,12.6-3.8c1.9-1.5,2.6-0.8,2.9,1.4c1,8.6-3.6,14.8-12.2,16.1
	c-15.5,2.4-30.1-6.5-33.8-20.5c-4.2-15.9,3.7-31.4,19-36.9c5.5-2.1,11.5-2.4,17.1-0.9C364.4,230.7,370,236.3,368.8,242.9z"/>
<path class="st4" d="M734.3,248.8c0-5.9,0-11.8,0-17.7c0-5.6,2.5-10,6.8-13.4c1.3-1,2.9-1.6,4.6-1.7c2.5-0.2,3.9,0.6,3.7,3.3
	c0,0.2,0,0.5,0,0.7c0.2,8.8,0.2,8.8,8.9,8.8c2.7,0,5.4,0,8.2,0c1.1,0,2.2,0.1,2.5,1.4c1.2,5.5-0.8,11.5-7.2,11.6
	c-3,0.1-5.9,0.1-8.9,0c-2.3-0.1-3.5,0.8-3.5,3.3c0.1,6.7-0.1,13.5,0.1,20.2c0.2,5.7,3.1,8.2,8.9,8.3c2.6,0,5.2,0.1,7.7-1
	c2.2-1,3-0.3,3.2,2c0.6,6.6-2.4,11.1-9,12.3c-4.9,0.9-10,0.4-14.6-1.5c-8.4-3.3-10.7-10.5-11.2-18.6
	C734,260.9,734.3,254.8,734.3,248.8z"/>
<path class="st4" d="M291.9,251.8c0-6.1,0.1-12.3,0-18.4c0-2.8,1.3-3.7,3.9-3.6c7.7,0.3,11.1,3.8,11.2,11.5c0.1,8.5,0,17,0,25.5
	c0,5.8,1.5,7.5,7.3,7.5c3.1,0,4.1,1.4,4,4.3c-0.1,5.7-2.4,8.2-8.1,8.6c-10.6,0.7-17.8-5.9-18.3-17
	C291.7,264.1,292,257.9,291.9,251.8L291.9,251.8z"/>
<path class="st4" d="M792.7,253.9c0,4.8-0.1,9.7,0,14.5c0.1,3.8,1.9,5.5,5.7,5.9c2.2,0.3,5.3-1,5.6,3c0.3,4.7-1.6,8.6-5.3,9.3
	c-9.6,1.7-20.1-1.6-20.9-14.3c-0.8-13.2-0.2-26.5-0.3-39.7c0-2,1-2.6,2.9-2.6c8.5-0.3,12.2,3.1,12.2,11.7
	C792.6,245.8,792.6,249.8,792.7,253.9L792.7,253.9z"/>
<path class="st4" d="M785.2,225.5c-4.8,0-8.8-3.9-8.9-8.8c-0.1-4.8,3.9-8.6,9-8.5c4.7,0.1,8.5,3.9,8.5,8.6
	C793.7,221.6,789.9,225.4,785.2,225.5z"/>
<path class="st4" d="M299.7,208.3c4.7,0.2,8.4,4,8.5,8.7c0,4.8-3.9,8.6-8.7,8.6c-0.1,0-0.1,0-0.2,0c-5-0.1-8.2-3.4-8.2-8.6
	c-0.2-4.6,3.3-8.4,7.8-8.7C299.1,208.3,299.4,208.3,299.7,208.3z"/>
<path class="st4" d="M257.8,292.8c4.3-0.1,7.8,3.2,7.9,7.5c0,0.1,0,0.2,0,0.3c-0.2,4.3-3.8,7.7-8.1,7.5c-4.1-0.2-7.4-3.5-7.5-7.6
	C250.3,296.3,253.6,293,257.8,292.8z"/>
<path class="st4" d="M340.9,300.5c0-4.2,3.4-7.3,7.8-7.4c3.1,0,6.5,3.7,6.6,7.1c0.1,4-3.1,7.3-7.1,7.3S340.9,304.5,340.9,300.5
	L340.9,300.5z"/>
</svg>
