<svg xmlns="http://www.w3.org/2000/svg" viewBox="0 0 750 750"><defs><style>.cls-1{fill:#f36223;}.cls-2{fill:#47c7ee;}.cls-3{fill:#6c53a4;}.cls-4{fill:#6ac6b7;}.cls-5{fill:#5d186b;}.cls-6{fill:#faa41d;}</style></defs><g id="katman_2" data-name="katman 2"><g id="katman_1-2" data-name="katman 1"><path class="cls-1" d="M146.15,236.87v43.86c7.39-8.54,16.16-12.93,26.54-12.93a32.54,32.54,0,0,1,14.31,3,23.15,23.15,0,0,1,9.7,7.62,26.55,26.55,0,0,1,4.38,10.16,99.69,99.69,0,0,1,1.16,17.31v50.78H179.39V310.5q0-13.5-1.39-17.31a10.46,10.46,0,0,0-4.61-5.77,15.35,15.35,0,0,0-8.31-2.08,19.23,19.23,0,0,0-10.16,2.77,15.77,15.77,0,0,0-6.46,8.31Q146.38,302,146.38,313v43.4H123.53V236.87Z"/><path class="cls-1" d="M268.61,328.74l22.85,3.92c-3,8.31-7.62,14.77-13.85,19.16s-14.31,6.46-23.77,6.46c-15,0-26.32-4.84-33.47-14.77-5.77-7.85-8.54-17.77-8.54-29.78,0-14.31,3.69-25.62,11.31-33.69,7.38-8.08,17.08-12.24,28.39-12.24,12.92,0,23.08,4.16,30.47,12.7s11.08,21.46,10.61,39H235.37q.34,10,5.54,15.92a17.47,17.47,0,0,0,13.16,5.77c3.69,0,6.69-.92,9-3A18.83,18.83,0,0,0,268.61,328.74ZM270,305.66c-.23-6.7-1.84-11.78-5.07-15.24a15.58,15.58,0,0,0-12-5.08,15.82,15.82,0,0,0-12.46,5.54c-3.23,3.7-4.85,8.54-4.85,14.78Z"/><path class="cls-1" d="M303.24,269.65h21.47v12.69A31.34,31.34,0,0,1,336,271.73a30.07,30.07,0,0,1,15.69-4.16q15.24,0,25.62,11.77c6.93,7.85,10.62,18.93,10.62,33,0,14.54-3.46,25.62-10.62,33.7s-15.69,12-25.62,12a28.73,28.73,0,0,1-12.92-2.77c-3.93-1.84-8.08-5.08-12.24-9.69v43.62H303.7V269.65Zm22.62,42c0,9.69,1.85,16.85,5.77,21.46s8.54,6.93,14.08,6.93a16.69,16.69,0,0,0,13.39-6.47c3.46-4.15,5.31-11.31,5.31-21,0-9-1.85-15.93-5.54-20.31s-8.08-6.7-13.62-6.7A17.27,17.27,0,0,0,331.4,292C327.71,296.65,325.86,303.12,325.86,311.66Z"/><path class="cls-1" d="M393.54,331.51l23.08-3.46a16.81,16.81,0,0,0,6,10.15q4.5,3.46,12.46,3.46c6,0,10.39-1.15,13.39-3.23a7.17,7.17,0,0,0,3-6.23,5.74,5.74,0,0,0-1.62-4.39c-1.15-1.15-3.69-2.07-7.62-3-18.46-4.15-30.23-7.84-35.08-11.08a22,22,0,0,1-10.39-19.38c0-7.62,3-13.85,9-18.93s15-7.62,27.46-7.62c11.77,0,20.55,1.85,26.32,5.77s9.69,9.47,12,17.08l-21.7,3.93a13.72,13.72,0,0,0-5.31-7.85Q440.74,284,433.47,284c-6,0-10.38.92-12.92,2.54a5.09,5.09,0,0,0-2.54,4.61,4.88,4.88,0,0,0,2.31,4.16c2.07,1.61,9.23,3.69,21.46,6.46s20.78,6.23,25.62,10.16c4.85,4.15,7.16,9.69,7.16,17.08,0,7.85-3.23,14.77-9.93,20.54s-16.38,8.54-29.54,8.54c-11.77,0-21.24-2.31-27.93-7.15A31,31,0,0,1,393.54,331.51Z"/><path class="cls-1" d="M483.15,247.49h0a10.62,10.62,0,0,1,10.62-10.62h1.61A10.62,10.62,0,0,1,506,247.49h0a10.62,10.62,0,0,1-10.62,10.62h-1.61A10.62,10.62,0,0,1,483.15,247.49Zm0,109V269.65H506v86.56H483.15Z"/><path class="cls-1" d="M123.53,509.69V390.27h22.82v43.11c7.15-8.06,15.45-12,25.13-12a33.6,33.6,0,0,1,26.05,11.52c6.92,7.61,10.38,18.68,10.38,33,0,14.76-3.46,26.05-10.61,34.12-6.91,8.07-15.67,12-25.59,12a30.17,30.17,0,0,1-14.52-3.69,35.45,35.45,0,0,1-12.45-11.06v12.68H123.53Zm22.59-45.18c0,9,1.39,15.68,4.15,19.82,3.92,6,9.22,9.23,15.91,9.23a15.84,15.84,0,0,0,12.91-6.46c3.46-4.38,5.3-11.06,5.3-20.29,0-9.91-1.84-17.06-5.3-21.44a16.93,16.93,0,0,0-13.83-6.45,16.47,16.47,0,0,0-13.6,6.45C148,449.29,146.12,455.75,146.12,464.51Z"/><path class="cls-1" d="M272.64,509.69V496.78a35,35,0,0,1-28.59,14.76,32.24,32.24,0,0,1-15.68-3.92,21.5,21.5,0,0,1-9.91-10.84c-2.08-4.61-3-11.06-3-19.13V423h22.83v39.88c0,12.22.46,19.6,1.15,22.37a12,12,0,0,0,4.61,6.45,14.27,14.27,0,0,0,8.53,2.31,19.15,19.15,0,0,0,10.6-3.23,16.82,16.82,0,0,0,6.46-8.07c1.15-3.23,1.61-11.07,1.61-23.28V423h22.83v86.45H272.64Z"/><path class="cls-1" d="M332.46,509.69H309.63V423h21.21v12.22c3.69-5.76,6.92-9.68,9.92-11.53a18.36,18.36,0,0,1,9.91-2.76,27.54,27.54,0,0,1,15,4.38l-7.14,20.05c-3.92-2.53-7.38-3.69-10.84-3.69a13,13,0,0,0-8.07,2.54c-2.3,1.84-3.92,4.84-5.3,9.68-1.38,4.61-1.84,14.3-1.84,29.05Z"/><path class="cls-1" d="M446.36,509.69H423.77c-.69-1.61-1.41-8.69-1.41-8.69a2.93,2.93,0,0,1-1.82-.76,42.79,42.79,0,0,1-12.45,8.53,36.62,36.62,0,0,1-14.29,2.77c-9,0-15.91-2.31-21-7.15a24,24,0,0,1-7.61-18.21A25.39,25.39,0,0,1,368.67,473a21.61,21.61,0,0,1,9.91-8.76c4.15-2.08,10.38-3.92,18.21-5.3,10.61-2.08,18.22-3.92,22.14-5.54v-2.3c0-4.38-1.16-7.61-3.23-9.46s-6.23-2.76-12.22-2.76c-4.15,0-7.15.69-9.45,2.3a15.7,15.7,0,0,0-5.77,8.3l-20.75-3.69c2.31-8.3,6.46-14.52,12-18.67,5.77-3.92,14.07-6,25.36-6,10.15,0,17.75,1.15,22.83,3.68a34.78,34.78,0,0,1,12.6,10.23,33.55,33.55,0,0,1,6,19.51M418.7,468q-4.5,1.38-13.84,3.45c-6.22,1.39-10.6,2.77-12.45,3.92a9.45,9.45,0,0,0-4.38,8.07,10.73,10.73,0,0,0,3.69,8.3,12.69,12.69,0,0,0,9.22,3.46A19.25,19.25,0,0,0,412.7,491a14.81,14.81,0,0,0,5.53-7.61c.7-1.84.93-5.76.93-11.06V468Z"/><path class="cls-1" d="M538.29,509.69H517.08V497a35.31,35.31,0,0,1-12.45,11.07,33.81,33.81,0,0,1-14.52,3.69c-9.91,0-18.44-3.92-25.59-12s-10.6-19.13-10.6-33.43c0-14.75,3.45-25.82,10.37-33.43a34,34,0,0,1,26-11.52c9.68,0,18,3.92,25.13,12V390.27h22.82V509.69ZM477.2,464.51c0,9.22,1.38,15.91,3.92,20.06,3.69,6,8.76,9,15.45,9,5.3,0,9.68-2.31,13.37-6.69s5.53-11.07,5.53-20.06c0-9.91-1.84-17.06-5.3-21.44a17.82,17.82,0,0,0-27.44,0C479,449.52,477.2,456,477.2,464.51Z"/><path class="cls-1" d="M627,509.69H604.41C603.72,508.08,603,501,603,501a2.93,2.93,0,0,1-1.82-.76,42.79,42.79,0,0,1-12.45,8.53,36.62,36.62,0,0,1-14.29,2.77c-9,0-15.91-2.31-21-7.15a24,24,0,0,1-7.61-18.21A25.39,25.39,0,0,1,549.31,473a21.61,21.61,0,0,1,9.91-8.76c4.15-2.08,10.37-3.92,18.21-5.3,10.61-2.08,18.22-3.92,22.14-5.54v-2.3c0-4.38-1.16-7.61-3.23-9.46s-6.23-2.76-12.22-2.76c-4.15,0-7.15.69-9.45,2.3a15.7,15.7,0,0,0-5.77,8.3l-20.75-3.69c2.31-8.3,6.46-14.52,12-18.67,5.77-3.92,14.07-6,25.36-6,10.15,0,17.75,1.15,22.83,3.68a34.78,34.78,0,0,1,12.6,10.23,33.55,33.55,0,0,1,6,19.51M599.33,468q-4.49,1.38-13.83,3.45c-6.22,1.39-10.6,2.77-12.45,3.92a9.45,9.45,0,0,0-4.38,8.07,10.73,10.73,0,0,0,3.69,8.3,12.69,12.69,0,0,0,9.22,3.46A19.25,19.25,0,0,0,593.34,491a14.81,14.81,0,0,0,5.53-7.61c.7-1.84.93-5.76.93-11.06V468Z"/><path class="cls-1" d="M115.85,104l35.4,34A324.85,324.85,0,0,1,375,49c107.63,0,203.06,52.17,262.42,132.58L675,149.91C606.54,58.88,497.65,0,375,0A373.71,373.71,0,0,0,115.85,104Z"/><path class="cls-2" d="M677.48,596.69a375.09,375.09,0,0,0-2.8-447.14L637,181.06a326,326,0,0,1,.67,387Z"/><path class="cls-3" d="M677.69,596.41,638,567.58C578.72,648.47,483,701,375,701a330.77,330.77,0,0,1-35.24-1.9l-1.17,49.15Q356.56,750,375,750C499.29,750,609.45,689.53,677.69,596.41Z"/><path class="cls-4" d="M339.11,748.3l.78-49.19A325.57,325.57,0,0,1,119.63,577.64L82.52,609.72A374.48,374.48,0,0,0,339.11,748.3Z"/><path class="cls-5" d="M83,610.29l37.13-32.06A324.45,324.45,0,0,1,49.87,398.88L1.22,405.37A373.19,373.19,0,0,0,83,610.29Z"/><path class="cls-6" d="M49,375A325.08,325.08,0,0,1,151.56,137.64l-35.1-34.26A373.92,373.92,0,0,0,0,375q0,15.79,1.29,31.27l48.63-6.71Q49,387.4,49,375Z"/></g></g></svg>