<?xml version="1.0" encoding="utf-8"?>
<!-- Generator: Adobe Illustrator 25.0.1, SVG Export Plug-In . SVG Version: 6.00 Build 0)  -->
<svg version="1.0" id="katman_1" xmlns="http://www.w3.org/2000/svg" xmlns:xlink="http://www.w3.org/1999/xlink" x="0px" y="0px"
	 viewBox="0 0 755.3 585.9" style="enable-background:new 0 0 755.3 585.9;" xml:space="preserve">
<style type="text/css">
	.st0{fill:url(#SVGID_1_);}
</style>
<g>
	<linearGradient id="SVGID_1_" gradientUnits="userSpaceOnUse" x1="208.0064" y1="335.9662" x2="343.1872" y2="286.7644">
		<stop  offset="0.1475" style="stop-color:#BA0E0C"/>
		<stop  offset="0.3627" style="stop-color:#CE0B16"/>
		<stop  offset="0.583" style="stop-color:#DD071D"/>
		<stop  offset="0.7235" style="stop-color:#E30520"/>
	</linearGradient>
	<ellipse class="st0" cx="275.6" cy="311.4" rx="71.8" ry="72.5"/>
	<path d="M139,296c5.9-8.7,13.9-12.2,23.9-11.4c11.3,0.9,19.4,6.1,20.3,18.8c0.9,14.2,0.7,28.4,0.8,42.6c0,5-2.1,6.6-8.5,7
		c-3.1,0.2-6.3,0-9.4-0.7c-3.3-0.7-4-3.5-4-6.6c0-10.4-0.1-20.7,0-31.1c0-4.1-0.4-7.9-4.7-9.6c-4.5-1.8-8.7-0.4-12.3,2.6
		c-4,3.3-5.6,8-5.7,13c-0.1,7.9,0,15.8,0,23.7c0,6.5-1.6,8.4-8.1,8.7c-2.8,0.1-5.6-0.2-8.3-0.6c-4-0.6-5.4-2.1-5.4-6.3
		c-0.1-17.8-0.1-35.6,0-53.4c0-3.8,1.8-6.1,5.5-6.5c3.4-0.4,6.8-0.3,10.2,0.1c3,0.3,4.8,2.1,4.8,5.4
		C138.2,292.9,138.7,294.2,139,296z"/>
	<path d="M547.3,300.6c5.6-9,12.8-15.3,23.5-16c11.3-0.7,18.7,4.4,20.8,16.3c2.6-3.2,4.7-6.3,7.3-8.8c7.7-7.5,16.9-9.5,27-5.9
		c7.6,2.7,10.7,9.4,11,16.8c0.7,14.4,0.6,28.9,0.8,43.3c0.1,4.4-2.7,6.3-6.7,4.5c-0.9-0.4-1.6-2.4-1.6-3.7
		c-0.1-12.8,0-25.7-0.1-38.5c0-2.8-0.5-5.8-1.5-8.5c-1.6-4.6-4.9-7.2-10.1-7.8c-13.5-1.7-20.9,9-23.6,18c-1,3.4-1.4,7.1-1.5,10.7
		c-0.2,8.9-0.2,17.9,0,26.8c0.1,3.2-1.6,3.3-4,3.3c-2.4,0-4-0.2-3.9-3.3c0.2-12.1,0.3-24.3-0.1-36.4c-0.1-4.4-1.3-8.9-2.6-13.2
		c-1.3-3.9-4.7-5.3-8.7-5.9c-13.7-1.9-21.8,9.4-24.5,19.3c-0.5,2-0.7,4.1-0.7,6.2c-0.1,9.4,0,18.8-0.1,28.3c0,4.5-2.2,6.3-6.5,4.8
		c-1-0.4-1.8-2.5-1.9-3.9c-0.2-10-0.1-20-0.1-30c0-8.8,0.1-17.7,0-26.5c0-3.2,1.1-4.5,4.3-4.5c3.1,0,3.7,1.5,3.5,4.2
		C547.1,293.6,547.3,297.1,547.3,300.6z"/>
	<path d="M324.7,315.6c0,9.2,0,18.4,0,27.5c0,2.3-0.4,4.7-0.6,7c-0.3,4-2.6,6.1-6.4,6.7c-6.7,1.2-12.9-0.5-13-8.4
		c0-5.8-0.2-11.5-0.3-17.3c0-8.1,0-16.2,0-24.4c-0.1-7.1-1.9-8.9-9.1-8.8c-3.2,0-5.9-0.6-7.2-3.8c-1.5-3.6-0.3-7.2,3.5-8.7
		c5.9-2.4,11.4-5.2,16.3-9.4c1.8-1.5,4.4-2.3,6.7-2.7c5-1,9.3,2,9.4,6.9c0.3,11.7,0.1,23.5,0.1,35.3
		C324.2,315.6,324.4,315.6,324.7,315.6z"/>
	<path d="M258.2,316c0,10.3,0,20.7,0,31c0,3.6-0.3,7.2-4.1,9c-4.2,2-8.8,2.2-12.3-0.6c-2-1.5-3.1-5.2-3.2-8
		c-0.3-13.2-0.1-26.3-0.1-39.5c0-8.1-1.8-9.9-9.8-10c-5.2-0.1-7.8-2.5-7-7.3c0.3-1.9,2.1-4.4,3.9-5.2c6-2.5,11.5-5.4,16.5-9.6
		c3.1-2.6,7.2-2.7,11-1.9c3.2,0.7,5.1,4.3,5.1,9.8C258.3,294.5,258.2,305.3,258.2,316z"/>
	<path d="M316.9,251.3c-11.6-7.3-23.6-11.8-37.5-12.1c0,48.4,0,96.5,0,144.5c-4.7,0.7-4.7,0.7-4.7-3.6c0.2-45.4,0.3-90.9,0.5-136.3
		c0-1.4,0-2.8,0-4.1c-7.9-1.7-18.7,1.2-36.9,10c0.7-10.2,13.8-27,32.8-29.4C293.9,217.4,312.2,231.5,316.9,251.3z"/>
	<path d="M491,284.5c18.7-0.3,34.6,14.6,34.3,33.9c-0.3,20.6-14.9,34.5-34.2,34.3c-20.2-0.2-33.8-14-34.1-34.4
		C456.7,298.8,471.9,284.6,491,284.5z M490.9,345.3c13.9,1,25.8-12,26.1-26.2c0.3-15.3-11.3-27.5-25.8-27.5
		c-14.5,0-25.8,11.6-25.9,26.8C465.2,334.3,478.1,346.1,490.9,345.3z"/>
	<path d="M418.6,284.5c10-0.1,16.8,2.4,23.1,6.8c2.3,1.6,1.9,3.3,0.7,5c-1.1,1.6-2.3,3.3-4.8,1.3c-4.7-3.6-10.1-5.9-16-6
		c-12.3-0.3-23.8,8.8-25.9,22.1c-2,12.9,5.1,27,17.3,30.5c9.5,2.7,18.2,0.8,26.1-5c1.7-1.2,3.2-2.4,4.6-0.2c1.5,2.1,1.9,4.4-0.6,6.1
		c-7.1,5.1-14.8,7.7-23.7,7.3c-7-0.3-13.3-2.1-19-6c-6.9-4.7-10.7-11.5-12.6-19.4c-1.9-8.1-1.1-16,2.2-23.5
		C395.2,292.1,407.2,284.3,418.6,284.5z"/>
	<path d="M260.4,207.9c0,3.8-2.5,6.7-5.7,6.6c-2.9,0-5.6-3.1-5.6-6.4c0-4.1,2-6.3,5.7-6.3C258.4,201.9,260.3,204,260.4,207.9z"/>
	<path d="M304.9,207.7c0,3.5-2.6,6.7-5.7,6.8c-2.9,0.1-6.4-3.7-6.2-6.7c0.1-2.9,3-5.9,5.7-5.9C302.6,201.8,304.8,203.9,304.9,207.7z
		"/>
	<path d="M361.4,346c0-3.7,2.3-6.3,5.6-6.1c3.1,0.1,5.8,3.1,5.7,6.3c0,3.1-3.1,6.3-5.9,6.2C363.5,352.3,361.3,349.7,361.4,346z"/>
</g>
</svg>
