<?xml version="1.0" encoding="utf-8"?>
<!-- Generator: Adobe Illustrator 25.0.1, SVG Export Plug-In . SVG Version: 6.00 Build 0)  -->
<svg version="1.1" id="Layer_1" xmlns="http://www.w3.org/2000/svg" xmlns:xlink="http://www.w3.org/1999/xlink" x="0px" y="0px"
	 viewBox="0 0 841.9 595.3" style="enable-background:new 0 0 841.9 595.3;" xml:space="preserve">
<style type="text/css">
	.st0{fill:#FFF200;}
</style>
<g>
	<rect x="51.3" y="218.9" class="st0" width="739.2" height="158"/>
	<rect x="311" y="261.1" width="14.4" height="11.8"/>
	<path d="M85.1,316.3c0.1,6.3,5.3,8.8,11,8.8c4.1,0,9.4-1.6,9.4-6.7c0-4.3-6-5.9-16.3-8.1c-8.3-1.8-16.6-4.8-16.6-14
		c0-13.3,11.5-16.8,22.8-16.8c11.4,0,21.9,3.8,23,16.7h-13.6c-0.4-5.6-4.6-7.1-9.8-7.1c-3.2,0-8,0.6-8,4.9c0,5.2,8.1,5.9,16.3,7.8
		c8.4,1.9,16.6,4.9,16.6,14.7c0,13.7-11.9,18.2-23.9,18.2c-12.1,0-24-4.5-24.6-18.4H85.1z"/>
	<path d="M124.6,297.1c0.8-13.4,12.8-17.5,24.6-17.5c10.4,0,22.9,2.3,22.9,14.9v27.2c0,4.8,0.5,9.5,1.8,11.6h-14.6
		c-0.5-1.6-0.9-3.3-1-5c-4.5,4.8-11.2,6.5-17.6,6.5c-9.9,0-17.8-5-17.8-15.7c0-11.8,8.9-14.6,17.8-15.9c8.8-1.3,17-1,17-6.9
		c0-6.2-4.2-7.1-9.3-7.1c-5.5,0-9,2.2-9.5,7.9H124.6z M157.8,307.7c-2.4,2.1-7.5,2.2-11.9,3c-4.5,0.9-8.5,2.4-8.5,7.7
		c0,5.4,4.2,6.7,8.8,6.7c11.2,0,11.6-8.9,11.6-12V307.7z"/>
	<path d="M178.2,261.1h14.4v27.2h0.3c3.6-5.9,9.9-8.7,15.3-8.7c15.3,0,19.1,8.6,19.1,21.5v32.1h-14.4v-29.5c0-8.6-2.5-12.8-9.2-12.8
		c-7.8,0-11.1,4.3-11.1,15v27.4h-14.4V261.1z"/>
	<path d="M247.8,272.9h-14.4v-11.8h14.4V272.9z M233.5,281h14.4v52.2h-14.4V281z"/>
	<path d="M254.3,261.1h14.4v26.3h0.2c3.5-5.4,10-7.8,16.5-7.8c10.4,0,21.6,8.4,21.6,27.5c0,19.2-11.2,27.6-21.6,27.6
		c-7.7,0-14-2.3-17.2-8.1h-0.2v6.7h-13.6V261.1z M280.4,290.4c-8.5,0-12.2,8-12.2,16.8c0,8.7,3.7,16.7,12.2,16.7
		c8.5,0,12.2-8,12.2-16.7C292.6,298.4,288.9,290.4,280.4,290.4"/>
	<rect x="556.2" y="321.4" width="14.4" height="11.8"/>
	<rect x="311" y="281" width="14.4" height="52.2"/>
	<path d="M331.8,281h13.6v7.3h0.3c3.6-5.9,9.9-8.7,16-8.7c15.3,0,19.1,8.6,19.1,21.5v32.1h-14.4v-29.5c0-8.6-2.5-12.8-9.2-12.8
		c-7.8,0-11.1,4.3-11.1,15v27.4h-14.4V281z"/>
	<path d="M424.7,326.6h-0.2c-3.3,5.7-9.2,8.1-15.9,8.1c-15.8,0-23.5-13.5-23.5-28c0-14,7.8-27.1,23.2-27.1c6.2,0,12.2,2.6,15.5,7.8
		h0.2v-26.3h14.3v72.2h-13.6V326.6z M412.1,290.4c-9.4,0-12.6,8.1-12.6,16.7c0,8.2,3.8,16.8,12.6,16.8c9.5,0,12.4-8.3,12.4-16.9
		C424.5,298.5,421.4,290.4,412.1,290.4"/>
	<path d="M456.6,310.6c0.4,9.1,4.8,13.2,12.8,13.2c5.8,0,10.4-3.5,11.3-6.8h12.6c-4,12.3-12.6,17.6-24.5,17.6
		c-16.5,0-26.7-11.3-26.7-27.5c0-15.7,10.8-27.6,26.7-27.6c17.8,0,26.4,15,25.4,31H456.6z M479.9,301.5c-1.3-7.3-4.4-11.1-11.4-11.1
		c-9.1,0-11.7,7.1-11.9,11.1H479.9z"/>
	<path d="M497.7,281h13.6v7.3h0.3c3.6-5.9,9.9-8.7,16-8.7c15.3,0,19.1,8.6,19.1,21.5v32.1h-14.4v-29.5c0-8.6-2.5-12.8-9.2-12.8
		c-7.8,0-11.1,4.3-11.1,15v27.4h-14.3V281z"/>
	<path d="M614.5,299.3c-0.9-5.9-4.6-9-10.6-9c-9.2,0-12.2,9.3-12.2,17c0,7.5,2.9,16.5,11.9,16.5c6.7,0,10.5-4.2,11.4-10.6h13.9
		c-1.8,13.8-11.4,21.4-25.2,21.4c-15.8,0-26.4-11.1-26.4-26.8c0-16.3,9.7-28.3,26.7-28.3c12.3,0,23.6,6.5,24.6,19.8H614.5z"/>
	<path d="M659.3,279.5c16.5,0,27.1,10.9,27.1,27.6c0,16.6-10.6,27.5-27.1,27.5c-16.4,0-27-10.9-27-27.5
		C632.3,290.4,642.9,279.5,659.3,279.5 M659.3,323.8c9.8,0,12.7-8.4,12.7-16.7c0-8.4-2.9-16.8-12.7-16.8c-9.7,0-12.6,8.4-12.6,16.8
		C646.7,315.4,649.6,323.8,659.3,323.8"/>
	<path d="M690.4,280.9h13.5v7.1h0.2c3.7-5.4,9.2-8.5,16-8.5c6.6,0,12.4,2.4,15.3,8.7c3-4.5,8.5-8.7,15.8-8.7
		c11.1,0,19.1,5.1,19.1,18.7v35h-14.4v-29.6c0-7-0.6-12.7-8.8-12.7c-8.1,0-9.6,6.7-9.6,13.2v29.1h-14.4v-29.3c0-6.1,0.4-13-8.7-13
		c-2.8,0-9.7,1.8-9.7,12v30.3h-14.4V280.9z"/>
</g>
</svg>
