<?xml version="1.0" encoding="UTF-8" standalone="no" ?>
<!DOCTYPE svg PUBLIC "-//W3C//DTD SVG 1.1//EN" "http://www.w3.org/Graphics/SVG/1.1/DTD/svg11.dtd">
<svg xmlns="http://www.w3.org/2000/svg" xmlns:xlink="http://www.w3.org/1999/xlink" version="1.1" width="1080" height="1080" viewBox="0 0 1080 1080" xml:space="preserve">
<desc>Created with Fabric.js 5.2.4</desc>
<defs>
</defs>
<rect x="0" y="0" width="100%" height="100%" fill="transparent"></rect>
<g transform="matrix(1 0 0 1 540 540)" id="3540128c-47f7-49fe-a771-835fef091035"  >
</g>
<g transform="matrix(1 0 0 1 540 540)" id="e163afdd-faf4-43a1-86ec-b30e22772077"  >
<rect style="stroke: none; stroke-width: 1; stroke-dasharray: none; stroke-linecap: butt; stroke-dashoffset: 0; stroke-linejoin: miter; stroke-miterlimit: 4; fill: rgb(255,255,255); fill-rule: nonzero; opacity: 1; visibility: hidden;" vector-effect="non-scaling-stroke"  x="-540" y="-540" rx="0" ry="0" width="1080" height="1080" />
</g>
<g transform="matrix(1 0 0 1 540 574.4)"  >
<path style="stroke: none; stroke-width: 1; stroke-dasharray: none; stroke-linecap: butt; stroke-dashoffset: 0; stroke-linejoin: miter; stroke-miterlimit: 4; fill: rgb(255,255,255); fill-rule: nonzero; opacity: 1;" vector-effect="non-scaling-stroke"  transform=" translate(-310, -139.91)" d="M 221.695 146.863 L 151.505 146.863 C 154.725 160.038 165.411 169.992 179.31799999999998 169.992 C 187.14899999999997 169.992 194.83399999999997 166.625 199.95799999999997 160.844 L 216.93799999999996 161.209 C 209.47199999999995 175.40800000000002 195.19999999999996 184.484 178.65899999999996 184.484 C 154.50599999999997 184.484 135.54899999999998 163.55 135.54899999999998 139.83800000000002 C 135.54899999999998 115.39200000000002 154.21299999999997 95.33800000000002 179.02499999999998 95.33800000000002 C 203.03199999999998 95.33800000000002 222.20799999999997 115.10000000000002 222.20799999999997 138.96000000000004 C 222.134 141.521 221.988 144.303 221.695 146.863 L 221.695 146.863 z M 178.805 109.829 C 165.04500000000002 109.829 152.31 120.66199999999999 151.43200000000002 134.641 L 206.17900000000003 134.641 C 205.3 120.734 192.638 109.829 178.805 109.829 z M 292.032 182.361 L 292.032 136.32399999999998 C 292.032 121.97799999999998 287.714 109.82899999999998 270.88 109.82899999999998 C 255.291 109.82899999999998 248.557 121.90599999999998 248.557 136.17799999999997 L 248.557 182.36199999999997 L 232.67499999999998 182.36199999999997 L 232.67499999999998 97.606 L 247.533 97.606 L 247.533 106.609 L 247.825 106.609 C 253.97299999999998 98.484 262.829 95.264 272.637 95.264 C 284.713 95.264 296.058 100.021 302.645 110.41499999999999 C 306.74399999999997 116.85499999999999 307.988 124.613 307.988 132.152 L 307.988 182.361 L 292.032 182.361 z M 392.522 182.361 L 392.522 170.285 L 392.23 170.285 C 385.20300000000003 180.09199999999998 374.005 184.484 362.221 184.484 C 336.824 184.484 318.159 165.52700000000002 318.159 140.27700000000002 C 318.159 114.87900000000002 336.53 95.26400000000001 362.221 95.26400000000001 C 372.908 95.26400000000001 384.251 99.36300000000001 390.986 107.92600000000002 L 391.27799999999996 107.92600000000002 L 391.27799999999996 69.135 L 407.16099999999994 69.135 L 407.16099999999994 182.361 L 392.522 182.361 z M 363.1 109.829 C 346.266 109.829 334.043 123.58999999999999 334.043 140.131 C 334.043 156.013 346.778 169.992 362.95300000000003 169.992 C 379.494 169.992 392.449 156.52499999999998 392.449 140.131 C 392.522 123.15 380.446 109.829 363.1 109.829 z M 453.198 210.687 L 436.73 210.687 L 449.09900000000005 180.678 L 415.285 97.607 L 432.41200000000003 97.607 L 457.37 163.405 L 482.913 97.607 L 500.04 97.607 L 453.198 210.687 L 453.198 210.687 z M 545.346 184.484 C 520.388 184.484 499.601 164.429 499.601 139.32500000000002 C 499.601 114.36700000000002 520.9 95.26400000000001 545.346 95.26400000000001 C 570.158 95.26400000000001 591.09 114.51400000000001 591.09 139.618 C 591.09 163.844 571.035 184.484 545.346 184.484 L 545.346 184.484 z M 545.346 109.829 C 528.804 109.829 515.484 123.297 515.484 139.838 C 515.484 156.379 528.8040000000001 169.992 545.346 169.992 C 562.034 169.992 575.207 156.232 575.207 139.691 C 575.134 123.15 561.813 109.829 545.346 109.829 z M 604.044 182.361 L 604.044 69.135 L 620 69.135 L 620 182.361 L 604.044 182.361 z M 15.736 165.674 C 16.395 168.382 17.273 170.578 18.298000000000002 172.262 C 19.322000000000003 173.945 20.64 175.408 22.177000000000003 176.799 C 27.227000000000004 181.191 33.595 183.459 41.134 183.459 C 48.599000000000004 183.459 55.626000000000005 181.629 61.993 178.116 L 61.993 162.89200000000002 C 55.406000000000006 166.77100000000002 49.112 168.747 43.18300000000001 168.747 C 35.132000000000005 168.747 30.960000000000008 163.84300000000002 30.960000000000008 154.108 L 30.960000000000008 112.61 L 57.67400000000001 112.61 L 57.67400000000001 97.899 L 31.033 97.899 L 31.033 70.672 L 15.297 70.672 L 15.297 97.826 L 0 97.826 L 0 112.53699999999999 L 14.638 112.53699999999999 L 14.638 150.15699999999998 C 14.638 157.77 15.004 162.966 15.736 165.674 z M 111.982 111.806 C 116.886 111.806 122.30199999999999 114.514 128.084 119.92999999999999 L 136.721 105.58399999999999 C 129.695 99.14399999999999 121.20400000000001 96.216 116.227 96.216 L 115.129 96.216 C 109.42 96.216 99.905 96.216 92.147 108.80499999999999 L 91.854 109.317 L 91.92699999999999 97.89999999999999 L 75.46 97.89999999999999 L 75.46 181.923 L 91.928 181.923 L 91.928 138.00900000000001 C 91.928 130.983 93.904 124.83500000000001 97.857 119.63800000000002 C 101.809 114.44 106.566 111.806 111.982 111.806 z" stroke-linecap="round" />
</g>
<g transform="matrix(1 0 0 1 751.71 473.84)"  >
<path style="stroke: none; stroke-width: 1; stroke-dasharray: none; stroke-linecap: butt; stroke-dashoffset: 0; stroke-linejoin: miter; stroke-miterlimit: 4; fill: rgb(255,103,27); fill-rule: nonzero; opacity: 1;" vector-effect="non-scaling-stroke"  transform=" translate(-521.71, -39.35)" d="M 455.394 78.357 C 454.663 78.503 453.93 77.918 453.784 77.18599999999999 L 449.539 50.544 C 448.14799999999997 41.834999999999994 449.466 34.587999999999994 454.077 28.659999999999997 C 458.542 22.804999999999996 465.202 19.290999999999997 473.692 17.900999999999996 L 584.356 0.336 C 585.087 0.19000000000000003 585.82 0.775 585.965 1.5070000000000001 L 594.3820000000001 54.936 C 594.528 55.668 593.9440000000001 56.4 593.211 56.546 L 455.394 78.357 z" stroke-linecap="round" />
</g>
<g transform="matrix(1 0 0 1 749.28 476.55)"  >
<path style="stroke: none; stroke-width: 1; stroke-dasharray: none; stroke-linecap: butt; stroke-dashoffset: 0; stroke-linejoin: miter; stroke-miterlimit: 4; fill: rgb(255,255,255); fill-rule: nonzero; opacity: 1;" vector-effect="non-scaling-stroke"  transform=" translate(-519.29, -42.06)" d="M 492.429 50.179 C 491.477 53.619 488.91499999999996 55.888000000000005 485.40299999999996 56.473 C 480.938 57.205 475.81399999999996 54.57 474.78999999999996 48.129 C 473.83899999999994 42.346999999999994 476.91299999999995 37.736 482.256 36.858 C 485.76899999999995 36.272999999999996 488.623 37.589999999999996 490.893 40.663999999999994 L 496.236 39.785999999999994 C 493.82099999999997 34.58899999999999 487.526 31.514999999999993 481.524 32.46699999999999 C 473.62 33.78499999999999 468.64300000000003 40.81099999999999 469.961 48.861999999999995 C 471.278 56.986 478.232 62.10999999999999 486.063 60.791999999999994 C 492.065 59.839999999999996 496.603 55.303 497.70099999999996 49.227999999999994 L 492.429 50.179 L 492.429 50.179 z M 513.068 27.343 C 505.017 28.66 499.527 35.979 500.844 43.738 C 502.162 51.643 509.7 56.986 517.751 55.668 C 525.803 54.351 531.2189999999999 46.885 529.975 39.054 C 528.585 31.295 521.046 26.026 513.068 27.343 z M 516.947 51.276 C 511.604 52.154 506.48 48.495000000000005 505.602 43.005 C 504.724 37.589 508.383 32.465 513.726 31.588 C 519.069 30.71 524.193 34.369 525.071 39.712 C 525.949 45.275 522.363 50.398 516.947 51.276 z M 577.184 45.202 L 574.549 28.953 C 573.377 21.854 568.62 18.194 561.74 19.365000000000002 C 557.568 20.024 555.08 21.854000000000003 553.616 25.294000000000004 L 553.47 25.586000000000006 L 553.3240000000001 25.367000000000004 C 551.3470000000001 22.513000000000005 547.249 21.781000000000006 544.248 22.220000000000006 C 540.8090000000001 22.805000000000007 539.052 24.050000000000004 537.148 27.124000000000006 L 537.076 27.197000000000006 L 536.783 27.270000000000007 L 536.27 24.342000000000006 L 531.8779999999999 25.074000000000005 L 536.27 52.00800000000001 L 541.101 51.20300000000001 L 538.685 36.12600000000001 C 537.8069999999999 30.563000000000013 539.564 27.490000000000013 544.2479999999999 26.75800000000001 C 546.5909999999999 26.39200000000001 548.4929999999999 26.97700000000001 549.8839999999999 28.51400000000001 C 551.348 30.19800000000001 551.6409999999998 31.95400000000001 551.9339999999999 34.00300000000001 L 554.4219999999999 49.007000000000005 L 559.2529999999999 48.202000000000005 L 556.7639999999999 33.19800000000001 C 556.1059999999999 29.319000000000006 556.1789999999999 24.781000000000006 562.0349999999999 23.830000000000005 C 566.3519999999999 23.098000000000006 569.1339999999999 25.660000000000004 570.0129999999998 31.076000000000008 L 572.4279999999998 46.080000000000005 L 577.184 45.202 L 577.184 45.202 z M 469.153 61.084 C 469.153 63.207 467.39700000000005 64.96300000000001 465.274 64.96300000000001 C 463.152 64.96300000000001 461.395 63.20600000000001 461.395 61.08400000000001 C 461.395 58.96200000000001 463.152 57.20500000000001 465.274 57.20500000000001 C 467.47 57.132 469.153 58.888 469.153 61.084 z" stroke-linecap="round" />
</g>
</svg>