<svg id="svg" version="1.1" xmlns="http://www.w3.org/2000/svg" xmlns:xlink="http://www.w3.org/1999/xlink" width="400" height="402.5974025974026" viewBox="0, 0, 400,402.5974025974026"><g id="svgg"><path id="path0" d="M58.410 56.588 C 57.737 57.399,57.271 60.732,57.609 62.322 C 58.236 65.277,58.453 74.951,57.979 78.800 C 57.080 86.105,57.455 89.988,59.225 91.689 C 59.822 92.262,59.876 92.617,59.545 93.816 C 59.285 94.757,59.283 95.418,59.540 95.727 C 59.755 95.987,59.936 96.290,59.940 96.400 C 59.949 96.615,60.091 97.004,61.402 100.400 L 62.252 102.600 81.026 102.466 C 91.352 102.392,101.420 102.219,103.400 102.081 C 112.251 101.464,123.732 101.542,125.538 102.231 C 128.353 103.307,335.459 103.334,336.350 102.260 C 336.562 102.004,336.860 101.302,337.011 100.698 C 337.184 100.010,337.555 99.600,338.006 99.600 C 339.536 99.600,341.919 94.932,341.276 93.193 C 341.050 92.583,341.058 91.778,341.298 91.092 C 341.511 90.481,341.597 89.310,341.490 88.490 C 341.383 87.671,341.473 86.126,341.690 85.057 C 341.964 83.709,341.941 82.179,341.617 80.057 C 341.360 78.376,341.066 74.660,340.964 71.800 C 340.461 57.625,340.740 57.919,327.600 57.690 C 309.173 57.367,146.212 57.328,125.800 57.641 C 79.026 58.358,81.846 58.362,76.373 57.555 C 72.693 57.013,70.978 56.920,69.975 57.207 C 67.766 57.841,63.714 57.693,62.560 56.937 C 61.309 56.117,58.964 55.920,58.410 56.588 " stroke="none" fill="#e74b50" fill-rule="evenodd"></path><path id="path1" d="M53.418 53.515 C 53.131 53.803,53.154 98.970,53.443 100.776 C 53.663 102.156,53.848 102.400,54.671 102.400 C 55.204 102.400,56.164 102.671,56.804 103.002 C 58.488 103.873,63.237 104.796,67.471 105.075 C 70.665 105.285,71.135 105.409,71.088 106.031 C 71.058 106.423,70.904 106.664,70.745 106.566 C 70.585 106.467,70.363 106.536,70.251 106.718 C 70.139 106.899,69.186 107.093,68.134 107.147 C 65.162 107.301,65.540 107.606,68.633 107.550 C 71.982 107.490,77.523 106.951,75.700 106.863 C 74.173 106.789,73.921 106.000,75.424 106.000 C 75.987 106.000,76.346 105.836,76.221 105.635 C 76.089 105.421,77.852 105.296,80.464 105.335 C 83.634 105.381,84.981 105.545,85.099 105.900 C 85.202 106.207,84.899 106.400,84.313 106.400 C 83.789 106.400,83.189 106.567,82.980 106.771 C 82.771 106.976,81.970 107.221,81.200 107.315 C 80.430 107.410,136.676 107.498,206.191 107.511 C 293.373 107.526,332.352 107.405,331.843 107.120 C 331.246 106.786,331.209 106.640,331.652 106.359 C 332.073 106.093,332.022 106.011,331.433 106.006 C 329.674 105.992,331.400 105.506,335.657 104.817 C 338.156 104.412,341.152 103.703,342.315 103.241 C 343.478 102.778,344.852 102.400,345.368 102.400 C 346.778 102.400,346.789 102.245,346.795 80.900 C 346.800 61.730,346.778 61.178,346.000 60.400 C 344.909 59.309,344.830 55.660,345.900 55.744 C 346.381 55.783,346.639 55.462,346.725 54.718 C 346.824 53.857,346.702 53.664,346.125 53.773 C 345.726 53.848,344.570 53.782,343.555 53.627 C 342.077 53.400,341.531 53.488,340.811 54.072 C 339.640 55.020,338.355 54.995,337.091 54.000 C 335.694 52.902,67.403 52.714,65.346 53.810 C 63.943 54.558,58.472 54.540,56.400 53.781 C 55.015 53.274,53.770 53.163,53.418 53.515 M62.560 56.937 C 63.714 57.693,67.766 57.841,69.975 57.207 C 70.978 56.920,72.693 57.013,76.373 57.555 C 81.846 58.362,79.026 58.358,125.800 57.641 C 146.212 57.328,309.173 57.367,327.600 57.690 C 340.740 57.919,340.461 57.625,340.964 71.800 C 341.066 74.660,341.360 78.376,341.617 80.057 C 341.941 82.179,341.964 83.709,341.690 85.057 C 341.473 86.126,341.383 87.671,341.490 88.490 C 341.597 89.310,341.511 90.481,341.298 91.092 C 341.058 91.778,341.050 92.583,341.276 93.193 C 341.919 94.932,339.536 99.600,338.006 99.600 C 337.555 99.600,337.184 100.010,337.011 100.698 C 336.860 101.302,336.562 102.004,336.350 102.260 C 335.459 103.334,128.353 103.307,125.538 102.231 C 123.732 101.542,112.251 101.464,103.400 102.081 C 101.420 102.219,91.352 102.392,81.026 102.466 L 62.252 102.600 61.402 100.400 C 60.091 97.004,59.949 96.615,59.940 96.400 C 59.936 96.290,59.755 95.987,59.540 95.727 C 59.283 95.418,59.285 94.757,59.545 93.816 C 59.876 92.617,59.822 92.262,59.225 91.689 C 57.455 89.988,57.080 86.105,57.979 78.800 C 58.453 74.951,58.236 65.277,57.609 62.322 C 56.598 57.559,59.196 54.733,62.560 56.937 M328.300 106.276 C 327.915 106.376,327.285 106.376,326.900 106.276 C 326.515 106.175,326.830 106.093,327.600 106.093 C 328.370 106.093,328.685 106.175,328.300 106.276 " stroke="none" fill="#b25056" fill-rule="evenodd"></path><path id="path2" d="M160.083 118.477 C 159.817 118.743,159.600 119.374,159.600 119.880 C 159.600 120.636,159.386 120.800,158.400 120.800 C 157.333 120.800,157.200 120.933,157.200 122.000 C 157.200 122.986,157.036 123.200,156.280 123.200 C 155.774 123.200,155.144 123.416,154.880 123.680 C 154.616 123.944,154.400 124.574,154.400 125.080 C 154.400 125.836,154.186 126.000,153.200 126.000 C 152.133 126.000,152.000 126.133,152.000 127.200 C 152.000 128.257,151.862 128.400,150.843 128.400 C 149.369 128.400,149.200 128.877,149.200 133.033 L 149.200 136.400 148.000 136.400 L 146.800 136.400 146.800 139.000 L 146.800 141.600 145.643 141.600 C 144.182 141.600,144.000 142.088,144.000 146.006 C 144.000 149.135,143.996 149.147,142.900 149.273 C 141.846 149.395,141.795 149.504,141.681 151.900 C 141.564 154.351,141.540 154.400,140.428 154.400 C 139.145 154.400,138.814 155.107,138.805 157.873 C 138.800 159.400,138.703 159.558,137.700 159.673 C 136.646 159.795,136.595 159.904,136.481 162.300 C 136.364 164.751,136.340 164.800,135.228 164.800 C 133.945 164.800,133.614 165.507,133.605 168.273 C 133.600 169.800,133.503 169.958,132.500 170.073 L 131.400 170.200 131.286 174.100 L 131.171 178.000 130.032 178.000 C 128.741 178.000,128.414 178.703,128.405 181.500 C 128.400 183.121,128.344 183.200,127.200 183.200 L 126.000 183.200 126.000 187.000 L 126.000 190.800 124.852 190.800 C 123.650 190.800,123.216 191.879,123.204 194.900 C 123.201 195.855,123.041 196.000,122.000 196.000 L 120.800 196.000 120.800 198.600 C 120.800 201.196,120.798 201.200,119.652 201.200 C 118.450 201.200,118.016 202.279,118.004 205.300 C 118.001 206.255,117.841 206.400,116.800 206.400 L 115.600 206.400 115.600 209.000 L 115.600 211.600 114.400 211.600 L 113.200 211.600 113.200 215.355 L 113.200 219.111 111.800 219.374 L 110.400 219.636 110.400 221.986 C 110.400 224.272,110.367 224.344,109.200 224.600 C 108.031 224.857,108.000 224.926,108.000 227.232 C 108.000 229.300,107.903 229.600,107.233 229.600 C 105.337 229.600,105.200 229.886,105.200 233.843 L 105.200 237.600 104.000 237.600 L 102.800 237.600 102.800 240.200 L 102.800 242.800 101.400 242.800 L 100.000 242.800 100.000 246.573 L 100.000 250.347 98.900 250.473 C 97.847 250.595,97.795 250.706,97.682 253.076 C 97.564 255.541,97.557 255.553,96.282 255.676 C 95.006 255.799,94.999 255.811,94.882 258.275 C 94.769 260.633,94.712 260.756,93.682 260.875 C 92.651 260.994,92.594 261.117,92.482 263.476 C 92.364 265.941,92.357 265.953,91.082 266.076 L 89.800 266.200 89.686 270.100 L 89.571 274.000 88.386 274.000 L 87.200 274.000 87.200 276.600 L 87.200 279.200 85.800 279.200 L 84.400 279.200 84.400 281.800 L 84.400 284.400 83.200 284.400 L 82.000 284.400 82.000 288.175 L 82.000 291.949 80.700 292.075 C 79.400 292.200,79.400 292.200,79.281 294.700 C 79.163 297.175,79.150 297.200,77.981 297.200 L 76.800 297.200 76.800 301.010 L 76.800 304.820 78.000 305.060 C 78.999 305.260,79.200 305.492,79.200 306.450 C 79.200 307.498,79.325 307.600,80.600 307.600 C 81.891 307.600,82.000 307.694,82.000 308.810 C 82.000 309.834,82.184 310.057,83.200 310.260 C 84.199 310.460,84.400 310.692,84.400 311.650 L 84.400 312.800 96.000 312.800 L 107.600 312.800 107.600 311.588 L 107.600 310.377 112.900 310.488 L 118.200 310.600 118.327 311.705 L 118.454 312.810 132.527 312.705 L 146.600 312.600 146.722 311.546 C 146.816 310.740,147.122 310.436,148.022 310.256 C 149.008 310.058,149.200 309.827,149.200 308.835 C 149.200 307.791,149.354 307.636,150.500 307.525 C 151.568 307.422,151.822 307.212,151.922 306.346 C 152.016 305.540,152.322 305.236,153.222 305.056 C 154.208 304.858,154.400 304.627,154.400 303.635 C 154.400 302.591,154.554 302.436,155.700 302.325 L 157.000 302.200 157.115 298.525 C 157.229 294.858,157.232 294.850,158.315 294.725 L 159.400 294.600 159.514 290.724 L 159.628 286.849 160.914 286.724 C 162.197 286.600,162.200 286.594,162.319 284.100 L 162.438 281.600 191.019 281.600 L 219.600 281.600 219.600 284.200 L 219.600 286.800 220.800 286.800 L 222.000 286.800 222.000 293.157 C 222.000 299.931,222.020 300.000,224.033 300.000 C 224.619 300.000,224.800 300.284,224.800 301.200 C 224.800 302.267,224.933 302.400,226.000 302.400 C 227.063 302.400,227.200 302.535,227.200 303.582 C 227.200 304.616,227.375 304.797,228.600 305.026 C 229.816 305.255,230.000 305.441,230.000 306.445 C 230.000 307.462,230.144 307.600,231.200 307.600 C 232.256 307.600,232.400 307.739,232.400 308.753 C 232.400 310.057,233.095 310.385,235.873 310.395 C 237.400 310.400,237.558 310.497,237.673 311.500 L 237.800 312.600 266.300 312.703 L 294.800 312.805 294.800 311.653 C 294.800 310.692,295.000 310.460,296.000 310.260 C 297.016 310.057,297.200 309.834,297.200 308.810 C 297.200 307.694,297.309 307.600,298.600 307.600 L 300.000 307.600 300.000 296.000 L 300.000 284.400 298.600 284.400 L 297.200 284.400 297.200 281.800 L 297.200 279.200 296.025 279.200 C 294.992 279.200,294.836 279.043,294.725 277.900 C 294.615 276.757,294.443 276.585,293.300 276.475 L 292.000 276.349 292.000 272.575 L 292.000 268.800 290.814 268.800 L 289.629 268.800 289.514 264.900 L 289.400 261.000 288.118 260.876 C 286.843 260.753,286.836 260.741,286.718 258.276 C 286.605 255.906,286.553 255.795,285.500 255.673 L 284.400 255.547 284.400 251.773 L 284.400 248.000 283.200 248.000 C 282.159 248.000,281.999 247.855,281.996 246.900 C 281.984 243.879,281.550 242.800,280.348 242.800 C 279.202 242.800,279.200 242.796,279.200 240.200 L 279.200 237.600 278.000 237.600 C 276.959 237.600,276.799 237.455,276.796 236.500 C 276.784 233.479,276.350 232.400,275.148 232.400 C 274.002 232.400,274.000 232.396,274.000 229.800 L 274.000 227.200 272.800 227.200 L 271.600 227.200 271.595 224.300 C 271.587 220.391,271.356 219.698,269.959 219.391 C 268.841 219.145,268.800 219.053,268.800 216.795 C 268.800 214.538,268.760 214.449,267.700 214.327 C 266.638 214.204,266.597 214.111,266.502 211.600 C 266.327 206.993,266.131 206.400,264.782 206.400 L 263.600 206.400 263.600 203.800 L 263.600 201.200 262.400 201.200 C 261.229 201.200,261.200 201.152,261.200 199.233 C 261.200 196.541,260.925 196.000,259.557 196.000 L 258.400 196.000 258.400 193.400 L 258.400 190.800 257.200 190.800 L 256.000 190.800 256.000 187.633 C 256.000 183.687,255.820 183.200,254.357 183.200 L 253.200 183.200 253.200 180.600 L 253.200 178.000 252.000 178.000 C 250.829 178.000,250.800 177.952,250.800 176.033 C 250.800 173.348,250.524 172.800,249.172 172.800 L 248.029 172.800 247.914 168.900 L 247.800 165.000 246.700 164.873 C 245.669 164.755,245.600 164.626,245.600 162.806 C 245.600 160.142,245.322 159.600,243.957 159.600 L 242.800 159.600 242.800 155.800 L 242.800 152.000 241.619 152.000 C 240.450 152.000,240.437 151.975,240.319 149.500 C 240.200 147.000,240.200 147.000,238.900 146.875 L 237.600 146.749 237.600 144.175 L 237.600 141.600 236.419 141.600 C 235.250 141.600,235.237 141.575,235.119 139.100 C 235.000 136.600,235.000 136.600,233.700 136.475 L 232.400 136.349 232.400 133.775 L 232.400 131.200 231.200 131.200 C 230.284 131.200,230.000 131.019,230.000 130.433 C 230.000 128.977,229.534 128.400,228.357 128.400 C 227.338 128.400,227.200 128.257,227.200 127.200 C 227.200 126.133,227.067 126.000,226.000 126.000 C 225.014 126.000,224.800 125.836,224.800 125.080 C 224.800 123.908,224.092 123.200,222.920 123.200 C 222.164 123.200,222.000 122.986,222.000 122.000 L 222.000 120.800 219.425 120.800 L 216.851 120.800 216.725 119.500 L 216.600 118.200 188.583 118.097 C 167.123 118.019,160.452 118.108,160.083 118.477 M190.866 216.601 L 191.000 219.202 189.700 219.201 L 188.400 219.200 188.400 216.600 L 188.400 214.000 189.566 214.000 C 190.720 214.000,190.733 214.025,190.866 216.601 " stroke="none" fill="#2c2c2c" fill-rule="evenodd"></path><path id="path3" d="M55.927 52.178 C 55.721 53.937,56.463 54.255,61.000 54.348 C 64.898 54.428,66.153 53.907,66.181 52.198 L 66.200 51.000 61.145 50.888 L 56.090 50.777 55.927 52.178 M336.400 52.158 C 336.400 54.459,338.755 55.548,340.733 54.162 C 342.760 52.742,341.797 51.019,338.900 50.881 L 336.400 50.762 336.400 52.158 M342.033 53.361 C 342.395 53.709,346.400 53.887,346.400 53.555 C 346.400 53.360,345.380 53.200,344.133 53.200 C 342.887 53.200,341.942 53.272,342.033 53.361 M345.200 57.667 C 345.200 59.953,346.307 61.426,347.737 61.042 C 348.212 60.915,348.735 60.808,348.900 60.805 C 349.954 60.786,349.163 55.999,348.100 55.967 C 347.495 55.948,346.595 55.888,346.100 55.834 C 345.277 55.742,345.200 55.899,345.200 57.667 M53.351 103.800 L 53.400 107.400 59.800 107.397 C 67.009 107.393,69.952 107.202,70.251 106.718 C 70.363 106.536,70.585 106.467,70.745 106.566 C 70.904 106.664,71.058 106.423,71.088 106.031 C 71.135 105.409,70.665 105.285,67.471 105.075 C 63.237 104.796,58.488 103.873,56.804 103.002 C 56.164 102.671,55.193 102.400,54.646 102.400 C 53.872 102.400,53.615 102.158,53.478 101.300 C 53.382 100.695,53.325 101.820,53.351 103.800 M346.400 101.800 C 346.400 102.171,346.024 102.400,345.415 102.400 C 344.873 102.400,343.478 102.778,342.315 103.241 C 341.152 103.703,338.156 104.412,335.657 104.817 C 331.400 105.506,329.674 105.992,331.433 106.006 C 332.028 106.011,332.076 106.091,331.646 106.363 C 330.309 107.210,332.873 107.600,339.774 107.600 L 346.800 107.600 346.800 104.400 C 346.800 102.640,346.710 101.200,346.600 101.200 C 346.490 101.200,346.400 101.470,346.400 101.800 M76.221 105.635 C 76.346 105.836,75.987 106.000,75.424 106.000 C 73.922 106.000,74.173 106.788,75.700 106.869 C 76.415 106.907,75.830 107.070,74.400 107.231 C 72.537 107.440,73.313 107.490,77.135 107.407 C 80.364 107.336,82.645 107.115,82.915 106.845 C 83.160 106.600,83.789 106.400,84.313 106.400 C 84.899 106.400,85.202 106.207,85.099 105.900 C 84.981 105.545,83.634 105.381,80.464 105.335 C 77.852 105.296,76.089 105.421,76.221 105.635 M326.900 106.276 C 327.285 106.376,327.915 106.376,328.300 106.276 C 328.685 106.175,328.370 106.093,327.600 106.093 C 326.830 106.093,326.515 106.175,326.900 106.276 M321.682 107.496 C 323.158 107.573,325.678 107.573,327.282 107.497 C 328.887 107.421,327.680 107.358,324.600 107.358 C 321.520 107.357,320.207 107.419,321.682 107.496 " stroke="none" fill="#64585c" fill-rule="evenodd"></path><path id="path4" d="" stroke="none" fill="#2c5860" fill-rule="evenodd"></path></g></svg>