<svg id="svg" version="1.1" xmlns="http://www.w3.org/2000/svg" xmlns:xlink="http://www.w3.org/1999/xlink" width="400" height="362.5" viewBox="0, 0, 400,362.5"><g id="svgg"><path id="path0" d="M379.187 39.740 C 378.883 40.530,378.911 41.627,379.238 41.828 C 379.388 41.920,379.518 41.358,379.528 40.580 C 379.548 39.009,379.506 38.906,379.187 39.740 M378.397 44.612 C 378.397 44.929,378.677 45.209,379.020 45.235 C 379.401 45.264,379.625 45.040,379.596 44.659 C 379.537 43.875,378.397 43.830,378.397 44.612 M23.694 99.934 C 23.574 100.246,23.685 100.695,23.940 100.931 C 24.299 101.263,24.346 101.258,24.148 100.907 C 23.910 100.485,24.361 100.276,25.175 100.431 C 25.358 100.466,25.297 100.240,25.040 99.930 C 24.443 99.211,23.971 99.212,23.694 99.934 M151.806 117.711 C 151.685 118.025,151.587 118.759,151.587 119.341 C 151.587 120.292,151.467 120.399,150.408 120.404 C 149.106 120.411,148.523 120.709,148.468 121.396 C 148.448 121.646,148.407 122.257,148.377 122.756 C 148.329 123.563,148.163 123.663,146.872 123.663 L 145.422 123.663 145.422 125.113 C 145.422 126.558,144.628 126.954,142.430 126.607 C 142.280 126.583,142.177 126.686,142.201 126.836 C 142.224 126.985,142.224 129.107,142.201 131.550 L 142.158 135.993 140.880 135.993 C 139.312 135.993,138.894 136.838,138.894 140.005 C 138.894 142.298,138.843 142.344,136.446 142.255 C 136.106 142.243,135.993 143.406,135.993 146.912 L 135.993 151.587 134.814 151.592 C 133.036 151.601,132.846 151.901,132.757 154.847 C 132.661 158.015,132.771 157.812,131.122 157.859 L 129.828 157.895 129.828 161.066 L 129.828 164.238 128.286 164.349 L 126.745 164.461 126.640 167.432 L 126.535 170.404 125.008 170.515 C 123.775 170.604,123.474 170.765,123.444 171.351 C 123.424 171.750,123.383 173.096,123.354 174.343 L 123.300 176.609 121.850 176.609 L 120.399 176.609 120.399 181.324 L 120.399 186.038 118.818 186.038 L 117.237 186.038 117.165 189.021 C 117.081 192.508,117.257 192.148,115.580 192.261 L 114.234 192.351 114.234 196.992 L 114.234 201.632 112.602 201.632 L 110.970 201.632 110.970 204.714 L 110.970 207.797 109.882 207.842 C 108.020 207.920,107.890 207.963,107.853 208.522 C 107.833 208.821,107.792 210.249,107.761 211.695 L 107.706 214.325 106.256 214.325 L 104.805 214.325 104.805 217.407 L 104.805 220.490 103.173 220.490 L 101.541 220.490 101.541 223.572 L 101.541 226.655 100.293 226.655 C 98.561 226.655,98.449 226.995,98.591 231.822 L 98.716 236.083 97.046 236.083 L 95.376 236.083 95.376 239.166 L 95.376 242.248 94.198 242.254 C 92.419 242.262,92.230 242.562,92.140 245.509 C 92.044 248.677,92.155 248.474,90.506 248.520 L 89.211 248.557 89.211 253.200 L 89.211 257.842 87.851 257.885 C 87.103 257.909,86.369 257.909,86.219 257.885 C 86.070 257.862,85.967 257.965,85.990 258.114 C 86.014 258.264,86.014 259.728,85.990 261.369 L 85.947 264.352 84.860 264.134 C 83.032 263.769,82.806 264.281,82.720 268.981 C 82.630 273.885,82.789 273.441,81.103 273.504 L 79.782 273.554 79.782 276.759 L 79.782 279.964 78.150 279.964 C 77.253 279.964,76.538 280.086,76.562 280.236 C 76.585 280.385,76.585 281.763,76.562 283.296 L 76.519 286.085 75.159 286.198 L 73.799 286.310 73.693 289.302 L 73.588 292.294 71.971 292.294 L 70.354 292.294 70.354 296.987 L 70.354 301.681 68.812 301.792 L 67.271 301.904 67.149 304.805 C 67.007 308.208,67.199 307.833,65.535 307.945 L 64.189 308.036 64.189 311.044 C 64.189 314.272,64.196 314.261,62.018 314.136 C 61.095 314.083,60.936 314.827,60.930 319.220 L 60.925 323.481 59.837 323.481 C 59.238 323.481,58.645 323.467,58.517 323.450 C 57.922 323.371,57.705 324.604,57.901 326.938 L 58.117 329.488 56.529 329.839 L 54.941 330.190 54.941 334.542 L 54.941 338.894 56.469 339.005 C 57.950 339.112,57.991 339.149,57.784 340.183 C 57.503 341.587,58.171 342.339,59.700 342.339 C 60.811 342.339,60.925 342.437,60.925 343.397 C 60.925 345.702,60.053 345.567,74.889 345.567 C 89.539 345.567,89.255 345.606,89.108 343.587 L 89.030 342.520 95.286 342.421 L 101.541 342.322 101.541 343.389 C 101.541 345.727,100.351 345.574,118.532 345.573 C 133.616 345.572,136.118 345.454,136.024 344.746 C 135.767 342.825,136.004 342.382,137.353 342.270 C 138.670 342.161,138.716 342.110,138.823 340.636 C 138.933 339.129,138.948 339.114,140.455 339.004 C 141.928 338.897,141.980 338.851,142.089 337.534 C 142.190 336.309,142.307 336.170,143.268 336.129 C 143.854 336.104,144.538 336.063,144.787 336.038 C 145.116 336.005,145.274 334.748,145.362 331.460 C 145.429 328.966,145.517 326.893,145.557 326.852 C 145.597 326.812,146.236 326.738,146.977 326.688 L 148.323 326.597 148.323 321.957 L 148.323 317.316 149.955 317.316 C 150.852 317.316,151.567 317.194,151.544 317.044 C 151.520 316.895,151.520 314.773,151.544 312.330 L 151.587 307.888 187.489 307.888 L 223.391 307.888 223.396 309.066 C 223.402 310.238,223.805 311.242,224.247 311.182 C 224.375 311.165,224.968 311.151,225.567 311.151 L 226.655 311.151 226.655 314.234 L 226.655 317.316 228.105 317.316 L 229.556 317.316 229.613 324.297 C 229.644 328.137,229.656 331.521,229.639 331.817 C 229.597 332.551,230.236 332.898,231.641 332.905 C 232.727 332.910,232.820 333.003,232.825 334.089 C 232.831 335.261,233.234 336.264,233.676 336.205 C 235.693 335.935,236.083 336.165,236.083 337.625 L 236.083 339.075 237.534 339.075 C 238.994 339.075,239.224 339.465,238.954 341.483 C 238.877 342.052,240.099 342.328,242.709 342.334 C 245.503 342.339,245.524 342.346,245.307 343.212 C 245.187 343.692,245.269 344.423,245.490 344.836 L 245.892 345.588 279.755 345.588 C 317.037 345.588,314.053 345.778,314.053 343.397 C 314.053 342.446,314.172 342.339,315.231 342.334 C 317.386 342.323,317.301 342.935,317.215 328.000 L 317.135 314.234 315.767 314.195 C 314.008 314.146,314.106 314.332,314.023 310.887 C 313.983 309.256,313.852 307.933,313.730 307.947 C 311.432 308.218,310.789 307.888,310.789 306.437 L 310.789 304.986 309.338 304.986 L 307.888 304.986 307.845 300.544 C 307.821 298.101,307.821 295.979,307.845 295.830 C 307.868 295.680,307.158 295.558,306.267 295.558 L 304.645 295.558 304.544 290.934 L 304.442 286.310 302.851 286.196 L 301.259 286.082 301.444 283.476 C 301.680 280.150,301.597 279.964,299.879 279.964 L 298.459 279.964 298.459 275.249 L 298.459 270.535 296.827 270.535 L 295.195 270.535 295.195 267.477 C 295.195 264.190,294.817 263.618,293.019 264.189 C 292.342 264.403,292.290 264.242,292.239 261.765 C 292.208 260.306,292.167 258.867,292.147 258.568 C 292.110 258.009,291.980 257.965,290.118 257.888 L 289.030 257.842 289.030 254.760 L 289.030 251.677 287.398 251.677 L 285.766 251.677 285.766 248.595 L 285.766 245.512 284.316 245.512 L 282.865 245.512 282.822 241.070 C 282.798 238.626,282.798 236.505,282.822 236.355 C 282.846 236.206,282.137 236.083,281.248 236.083 L 279.630 236.083 279.525 233.092 L 279.420 230.100 278.060 229.987 L 276.700 229.875 276.646 225.998 C 276.617 223.866,276.576 221.795,276.556 221.396 C 276.526 220.811,276.225 220.650,274.992 220.560 L 273.465 220.449 273.360 217.478 L 273.255 214.506 271.714 214.394 L 270.172 214.283 270.172 211.131 L 270.171 207.978 268.837 207.883 C 267.174 207.763,267.340 208.075,267.243 204.893 C 267.154 201.946,266.964 201.646,265.186 201.637 L 264.007 201.632 264.007 196.917 C 264.007 194.325,263.885 192.222,263.735 192.246 C 263.586 192.270,262.933 192.270,262.285 192.246 L 261.106 192.203 261.106 190.051 C 261.106 186.883,260.688 186.038,259.120 186.038 L 257.842 186.038 257.842 182.956 L 257.842 179.873 256.221 179.873 L 254.600 179.873 254.499 175.249 L 254.397 170.626 253.037 170.513 L 251.677 170.400 251.620 167.974 C 251.588 166.640,251.586 165.263,251.616 164.914 C 251.659 164.396,251.370 164.279,250.052 164.279 L 248.435 164.279 248.334 159.655 L 248.232 155.032 246.691 154.920 L 245.150 154.809 245.150 151.779 L 245.150 148.749 243.713 148.506 L 242.277 148.264 242.172 145.301 C 242.100 143.260,241.926 142.325,241.614 142.294 C 241.364 142.269,240.671 142.228,240.073 142.203 L 238.985 142.158 238.985 139.075 L 238.985 135.993 237.534 135.993 L 236.083 135.993 236.023 134.089 C 235.989 133.042,235.948 131.695,235.932 131.097 C 235.904 130.082,235.799 130.002,234.361 129.898 C 232.823 129.786,232.431 129.028,232.777 126.836 C 232.800 126.686,232.697 126.583,232.548 126.607 C 230.350 126.954,229.556 126.558,229.556 125.113 L 229.556 123.663 228.105 123.663 C 226.745 123.663,226.652 123.595,226.609 122.575 C 226.584 121.976,226.544 121.283,226.519 121.034 C 226.487 120.718,225.510 120.548,223.300 120.475 L 220.127 120.371 220.127 118.760 L 220.127 117.150 186.076 117.144 C 155.410 117.140,152.003 117.196,151.806 117.711 M189.024 224.116 L 189.121 229.737 190.489 229.776 C 192.248 229.825,192.150 229.639,192.233 233.084 C 192.272 234.715,192.404 236.038,192.526 236.024 C 194.779 235.758,195.467 236.092,195.467 237.452 C 195.467 238.987,193.076 240.020,191.182 239.303 C 190.720 239.128,187.905 238.985,184.927 238.985 L 179.510 238.985 179.510 237.534 C 179.510 236.090,180.304 235.693,182.502 236.040 C 182.652 236.064,182.774 233.962,182.774 231.369 L 182.774 226.655 183.953 226.649 C 185.125 226.644,186.128 226.240,186.069 225.798 C 186.052 225.671,186.038 223.700,186.038 221.418 L 186.038 217.270 187.398 217.157 C 189.018 217.023,188.894 216.490,189.024 224.116 " stroke="none" fill="#04acf4" fill-rule="evenodd"></path><path id="path1" d="M26.655 33.364 C 26.531 33.563,26.644 33.729,26.905 33.732 C 27.254 33.736,27.267 33.809,26.953 34.009 C 26.718 34.158,26.554 34.605,26.590 35.001 C 26.644 35.601,26.398 35.739,25.113 35.832 L 23.572 35.944 23.572 67.093 L 23.572 98.243 25.810 98.351 C 27.836 98.449,28.053 98.536,28.106 99.275 C 28.139 99.723,28.044 100.091,27.895 100.091 C 27.747 100.091,27.667 100.376,27.719 100.725 C 27.807 101.329,36.429 101.364,202.120 101.451 L 376.428 101.542 376.428 68.676 L 376.428 35.810 370.716 35.941 C 356.783 36.260,38.773 35.882,38.980 35.547 C 39.101 35.352,39.012 34.842,38.784 34.415 C 38.501 33.887,38.494 33.717,38.763 33.883 C 39.009 34.035,39.076 33.915,38.942 33.564 C 38.685 32.894,27.062 32.705,26.655 33.364 " stroke="none" fill="#e64c51" fill-rule="evenodd"></path><path id="path2" d="M364.823 33.364 C 364.823 33.563,365.014 33.726,365.246 33.726 C 365.479 33.726,365.565 33.831,365.436 33.959 C 365.308 34.087,364.995 34.020,364.741 33.809 C 364.383 33.513,364.269 33.710,364.235 34.685 C 364.202 35.636,364.317 35.896,364.707 35.746 C 364.993 35.636,365.125 35.708,365.002 35.906 C 364.865 36.127,365.626 36.265,366.989 36.265 C 368.670 36.265,369.250 36.127,369.418 35.690 C 369.558 35.325,369.726 35.258,369.879 35.505 C 370.011 35.719,370.136 35.318,370.156 34.614 C 370.186 33.559,370.103 33.407,369.687 33.752 C 369.410 33.983,369.288 34.341,369.416 34.549 C 369.558 34.777,369.472 34.817,369.199 34.648 C 368.875 34.448,368.859 34.259,369.143 33.975 C 369.693 33.426,369.635 33.001,369.012 33.001 C 368.722 33.001,368.302 33.286,368.078 33.636 C 367.747 34.149,367.704 34.158,367.850 33.681 C 367.980 33.253,367.796 33.092,367.180 33.092 C 366.565 33.092,366.381 33.253,366.511 33.681 C 366.657 34.158,366.614 34.149,366.283 33.636 C 365.845 32.955,364.823 32.764,364.823 33.364 M376.428 42.365 C 376.428 45.420,376.433 45.438,377.153 44.787 C 377.552 44.426,377.879 44.302,377.879 44.511 C 377.879 44.720,378.127 44.986,378.431 45.103 C 378.887 45.278,378.914 45.185,378.585 44.570 C 378.225 43.898,378.256 43.863,378.903 44.209 C 379.521 44.540,379.595 44.494,379.434 43.878 C 379.326 43.466,379.072 43.268,378.835 43.410 C 378.608 43.546,378.660 43.364,378.951 43.007 C 379.585 42.226,379.785 41.241,379.241 41.578 C 378.981 41.738,378.921 41.401,379.059 40.552 C 379.206 39.644,379.129 39.287,378.787 39.287 C 378.525 39.287,378.394 39.504,378.496 39.770 C 378.598 40.036,378.496 40.254,378.269 40.254 C 378.042 40.254,377.772 40.036,377.670 39.770 C 377.041 38.131,376.428 39.413,376.428 42.365 M23.647 99.134 C 23.705 99.529,23.998 99.919,24.297 99.999 C 24.781 100.130,24.781 100.103,24.297 99.761 C 23.998 99.550,23.937 99.374,24.162 99.371 C 24.387 99.368,24.782 99.619,25.040 99.930 C 25.297 100.240,25.358 100.466,25.175 100.431 C 24.448 100.293,24.056 100.477,24.056 100.956 C 24.056 101.482,24.540 101.528,25.270 101.072 C 25.505 100.925,25.800 100.970,25.926 101.173 C 26.377 101.902,27.894 101.604,27.743 100.816 C 27.666 100.417,27.729 100.091,27.884 100.091 C 28.039 100.091,28.138 99.723,28.104 99.275 C 28.047 98.525,27.858 98.457,25.791 98.437 C 23.747 98.418,23.550 98.482,23.647 99.134 M98.412 232.457 C 98.412 234.551,98.472 235.408,98.545 234.361 C 98.618 233.314,98.618 231.600,98.545 230.553 C 98.472 229.506,98.412 230.363,98.412 232.457 M301.472 284.134 C 301.474 285.331,301.542 285.777,301.623 285.125 C 301.703 284.473,301.702 283.494,301.619 282.949 C 301.536 282.404,301.470 282.937,301.472 284.134 M57.770 327.833 C 57.770 328.930,57.838 329.379,57.921 328.830 C 58.004 328.282,58.004 327.384,57.921 326.836 C 57.838 326.287,57.770 326.736,57.770 327.833 " stroke="none" fill="#4074f8" fill-rule="evenodd"></path><path id="path3" d="M364.823 33.364 C 364.823 33.563,365.014 33.726,365.246 33.726 C 365.479 33.726,365.565 33.831,365.436 33.959 C 365.308 34.087,364.995 34.020,364.741 33.809 C 364.383 33.513,364.269 33.710,364.235 34.685 C 364.202 35.636,364.317 35.896,364.707 35.746 C 364.993 35.636,365.125 35.708,365.002 35.906 C 364.865 36.127,365.626 36.265,366.989 36.265 C 368.670 36.265,369.250 36.127,369.418 35.690 C 369.558 35.325,369.726 35.258,369.879 35.505 C 370.011 35.719,370.136 35.318,370.156 34.614 C 370.186 33.559,370.103 33.407,369.687 33.752 C 369.410 33.983,369.288 34.341,369.416 34.549 C 369.558 34.777,369.472 34.817,369.199 34.648 C 368.875 34.448,368.859 34.259,369.143 33.975 C 369.693 33.426,369.635 33.001,369.012 33.001 C 368.722 33.001,368.302 33.286,368.078 33.636 C 367.747 34.149,367.704 34.158,367.850 33.681 C 367.980 33.253,367.796 33.092,367.180 33.092 C 366.565 33.092,366.381 33.253,366.511 33.681 C 366.657 34.158,366.614 34.149,366.283 33.636 C 365.845 32.955,364.823 32.764,364.823 33.364 M376.428 42.365 C 376.428 45.420,376.433 45.438,377.153 44.787 C 377.552 44.426,377.879 44.302,377.879 44.511 C 377.879 44.720,378.127 44.986,378.431 45.103 C 378.887 45.278,378.914 45.185,378.585 44.570 C 378.225 43.898,378.256 43.863,378.903 44.209 C 379.521 44.540,379.595 44.494,379.434 43.878 C 379.326 43.466,379.072 43.268,378.835 43.410 C 378.608 43.546,378.660 43.364,378.951 43.007 C 379.585 42.226,379.785 41.241,379.241 41.578 C 378.981 41.738,378.921 41.401,379.059 40.552 C 379.206 39.644,379.129 39.287,378.787 39.287 C 378.525 39.287,378.394 39.504,378.496 39.770 C 378.598 40.036,378.496 40.254,378.269 40.254 C 378.042 40.254,377.772 40.036,377.670 39.770 C 377.041 38.131,376.428 39.413,376.428 42.365 M23.647 99.134 C 23.705 99.529,23.998 99.919,24.297 99.999 C 24.781 100.130,24.781 100.103,24.297 99.761 C 23.998 99.550,23.937 99.374,24.162 99.371 C 24.387 99.368,24.782 99.619,25.040 99.930 C 25.297 100.240,25.358 100.466,25.175 100.431 C 24.448 100.293,24.056 100.477,24.056 100.956 C 24.056 101.482,24.540 101.528,25.270 101.072 C 25.505 100.925,25.800 100.970,25.926 101.173 C 26.377 101.902,27.894 101.604,27.743 100.816 C 27.666 100.417,27.729 100.091,27.884 100.091 C 28.039 100.091,28.138 99.723,28.104 99.275 C 28.047 98.525,27.858 98.457,25.791 98.437 C 23.747 98.418,23.550 98.482,23.647 99.134 M98.412 232.457 C 98.412 234.551,98.472 235.408,98.545 234.361 C 98.618 233.314,98.618 231.600,98.545 230.553 C 98.472 229.506,98.412 230.363,98.412 232.457 M301.472 284.134 C 301.474 285.331,301.542 285.777,301.623 285.125 C 301.703 284.473,301.702 283.494,301.619 282.949 C 301.536 282.404,301.470 282.937,301.472 284.134 M57.770 327.833 C 57.770 328.930,57.838 329.379,57.921 328.830 C 58.004 328.282,58.004 327.384,57.921 326.836 C 57.838 326.287,57.770 326.736,57.770 327.833 " stroke="none" fill="#4074f8" fill-rule="evenodd"></path><path id="path4" d="M364.823 33.364 C 364.823 33.563,365.014 33.726,365.246 33.726 C 365.479 33.726,365.565 33.831,365.436 33.959 C 365.308 34.087,364.995 34.020,364.741 33.809 C 364.383 33.513,364.269 33.710,364.235 34.685 C 364.202 35.636,364.317 35.896,364.707 35.746 C 364.993 35.636,365.125 35.708,365.002 35.906 C 364.865 36.127,365.626 36.265,366.989 36.265 C 368.670 36.265,369.250 36.127,369.418 35.690 C 369.558 35.325,369.726 35.258,369.879 35.505 C 370.011 35.719,370.136 35.318,370.156 34.614 C 370.186 33.559,370.103 33.407,369.687 33.752 C 369.410 33.983,369.288 34.341,369.416 34.549 C 369.558 34.777,369.472 34.817,369.199 34.648 C 368.875 34.448,368.859 34.259,369.143 33.975 C 369.693 33.426,369.635 33.001,369.012 33.001 C 368.722 33.001,368.302 33.286,368.078 33.636 C 367.747 34.149,367.704 34.158,367.850 33.681 C 367.980 33.253,367.796 33.092,367.180 33.092 C 366.565 33.092,366.381 33.253,366.511 33.681 C 366.657 34.158,366.614 34.149,366.283 33.636 C 365.845 32.955,364.823 32.764,364.823 33.364 M376.428 42.365 C 376.428 45.420,376.433 45.438,377.153 44.787 C 377.552 44.426,377.879 44.302,377.879 44.511 C 377.879 44.720,378.127 44.986,378.431 45.103 C 378.887 45.278,378.914 45.185,378.585 44.570 C 378.225 43.898,378.256 43.863,378.903 44.209 C 379.521 44.540,379.595 44.494,379.434 43.878 C 379.326 43.466,379.072 43.268,378.835 43.410 C 378.608 43.546,378.660 43.364,378.951 43.007 C 379.585 42.226,379.785 41.241,379.241 41.578 C 378.981 41.738,378.921 41.401,379.059 40.552 C 379.206 39.644,379.129 39.287,378.787 39.287 C 378.525 39.287,378.394 39.504,378.496 39.770 C 378.598 40.036,378.496 40.254,378.269 40.254 C 378.042 40.254,377.772 40.036,377.670 39.770 C 377.041 38.131,376.428 39.413,376.428 42.365 M23.647 99.134 C 23.705 99.529,23.998 99.919,24.297 99.999 C 24.781 100.130,24.781 100.103,24.297 99.761 C 23.998 99.550,23.937 99.374,24.162 99.371 C 24.387 99.368,24.782 99.619,25.040 99.930 C 25.297 100.240,25.358 100.466,25.175 100.431 C 24.448 100.293,24.056 100.477,24.056 100.956 C 24.056 101.482,24.540 101.528,25.270 101.072 C 25.505 100.925,25.800 100.970,25.926 101.173 C 26.377 101.902,27.894 101.604,27.743 100.816 C 27.666 100.417,27.729 100.091,27.884 100.091 C 28.039 100.091,28.138 99.723,28.104 99.275 C 28.047 98.525,27.858 98.457,25.791 98.437 C 23.747 98.418,23.550 98.482,23.647 99.134 M98.412 232.457 C 98.412 234.551,98.472 235.408,98.545 234.361 C 98.618 233.314,98.618 231.600,98.545 230.553 C 98.472 229.506,98.412 230.363,98.412 232.457 M301.472 284.134 C 301.474 285.331,301.542 285.777,301.623 285.125 C 301.703 284.473,301.702 283.494,301.619 282.949 C 301.536 282.404,301.470 282.937,301.472 284.134 M57.770 327.833 C 57.770 328.930,57.838 329.379,57.921 328.830 C 58.004 328.282,58.004 327.384,57.921 326.836 C 57.838 326.287,57.770 326.736,57.770 327.833 " stroke="none" fill="#4074f8" fill-rule="evenodd"></path></g></svg>