<svg id="svg" version="1.1" xmlns="http://www.w3.org/2000/svg" xmlns:xlink="http://www.w3.org/1999/xlink" width="400" height="86.86868686868686" viewBox="0, 0, 400,86.86868686868686"><g id="svgg"><path id="path0" d="M243.167 30.750 C 243.167 30.956,242.861 31.000,241.417 31.000 C 239.972 31.000,239.667 31.044,239.667 31.250 C 239.667 31.435,239.472 31.500,238.917 31.500 C 238.361 31.500,238.167 31.565,238.167 31.750 C 238.167 31.935,237.972 32.000,237.417 32.000 C 236.861 32.000,236.667 32.065,236.667 32.250 C 236.667 32.417,236.500 32.500,236.167 32.500 C 235.833 32.500,235.667 32.583,235.667 32.750 C 235.667 32.899,235.513 33.000,235.287 33.000 C 235.074 33.000,234.715 33.219,234.468 33.501 C 234.226 33.777,233.836 34.017,233.598 34.037 C 233.205 34.070,233.092 34.196,233.147 34.542 C 233.158 34.610,233.110 34.658,233.042 34.647 C 232.736 34.599,232.500 34.680,232.500 34.833 C 232.500 35.152,231.831 35.667,231.417 35.667 C 231.157 35.667,231.000 35.761,231.000 35.917 C 231.000 36.054,230.887 36.167,230.750 36.167 C 230.612 36.167,230.500 36.279,230.500 36.417 C 230.500 36.554,230.387 36.667,230.250 36.667 C 230.112 36.667,230.000 36.779,230.000 36.917 C 230.000 37.054,229.887 37.167,229.750 37.167 C 229.612 37.167,229.500 37.279,229.500 37.417 C 229.500 37.554,229.387 37.667,229.250 37.667 C 229.083 37.667,229.000 37.833,229.000 38.167 C 229.000 38.500,228.917 38.667,228.750 38.667 C 228.612 38.667,228.500 38.779,228.500 38.917 C 228.500 39.054,228.387 39.167,228.250 39.167 C 228.083 39.167,228.000 39.333,228.000 39.667 C 228.000 40.000,227.917 40.167,227.750 40.167 C 227.583 40.167,227.500 40.333,227.500 40.667 C 227.500 41.000,227.417 41.167,227.250 41.167 C 227.083 41.167,227.000 41.333,227.000 41.667 C 227.000 42.000,226.917 42.167,226.750 42.167 C 226.583 42.167,226.500 42.333,226.500 42.667 C 226.500 43.000,226.417 43.167,226.250 43.167 C 226.065 43.167,226.000 43.361,226.000 43.917 C 226.000 44.472,225.935 44.667,225.750 44.667 C 225.556 44.667,225.500 44.889,225.500 45.667 C 225.500 46.451,225.445 46.667,225.246 46.667 C 225.027 46.667,224.999 47.076,225.038 49.708 C 225.073 52.034,225.132 52.740,225.292 52.708 C 225.440 52.679,225.500 52.957,225.500 53.672 C 225.500 54.412,225.566 54.702,225.750 54.773 C 225.920 54.838,226.000 55.104,226.000 55.601 C 226.000 56.141,226.066 56.333,226.250 56.333 C 226.417 56.333,226.500 56.500,226.500 56.833 C 226.500 57.167,226.417 57.333,226.250 57.333 C 226.112 57.333,226.000 57.221,226.000 57.083 C 226.000 56.946,225.887 56.833,225.750 56.833 C 225.612 56.833,225.500 56.721,225.500 56.583 C 225.500 56.446,225.387 56.333,225.250 56.333 C 225.112 56.333,225.000 56.221,225.000 56.083 C 225.000 55.865,224.185 55.833,218.667 55.833 C 213.148 55.833,212.333 55.801,212.333 55.583 C 212.333 55.446,212.446 55.333,212.583 55.333 C 212.721 55.333,212.833 55.221,212.833 55.083 C 212.833 54.946,212.946 54.833,213.083 54.833 C 213.221 54.833,213.333 54.721,213.333 54.583 C 213.333 54.446,213.446 54.333,213.583 54.333 C 213.721 54.333,213.833 54.261,213.833 54.172 C 213.833 53.960,215.047 52.743,215.208 52.794 C 215.277 52.815,215.333 52.571,215.333 52.250 C 215.333 51.843,215.409 51.667,215.583 51.667 C 215.721 51.667,215.833 51.554,215.833 51.417 C 215.833 51.279,215.946 51.167,216.083 51.167 C 216.221 51.167,216.333 51.063,216.333 50.936 C 216.333 50.809,216.483 50.666,216.667 50.618 C 216.892 50.559,217.000 50.391,217.000 50.099 C 217.000 49.826,217.092 49.667,217.250 49.667 C 217.388 49.667,217.482 49.610,217.460 49.542 C 217.409 49.381,218.626 48.167,218.839 48.167 C 218.928 48.167,219.000 48.054,219.000 47.917 C 219.000 47.779,219.112 47.667,219.250 47.667 C 219.387 47.667,219.500 47.554,219.500 47.417 C 219.500 47.279,219.612 47.167,219.750 47.167 C 219.887 47.167,220.000 47.054,220.000 46.917 C 220.000 46.779,220.112 46.667,220.250 46.667 C 220.387 46.667,220.500 46.554,220.500 46.417 C 220.500 46.279,220.612 46.167,220.750 46.167 C 220.887 46.167,221.000 46.054,221.000 45.917 C 221.000 45.779,221.112 45.667,221.250 45.667 C 221.387 45.667,221.500 45.554,221.500 45.417 C 221.500 45.279,221.612 45.167,221.750 45.167 C 221.917 45.167,222.000 45.000,222.000 44.667 C 222.000 44.333,222.083 44.167,222.250 44.167 C 222.387 44.167,222.500 44.054,222.500 43.917 C 222.500 43.779,222.612 43.667,222.750 43.667 C 222.887 43.667,223.000 43.554,223.000 43.417 C 223.000 43.279,223.112 43.167,223.250 43.167 C 223.387 43.167,223.500 43.054,223.500 42.917 C 223.500 42.779,223.612 42.667,223.750 42.667 C 223.917 42.667,224.000 42.500,224.000 42.167 C 224.000 41.833,224.083 41.667,224.250 41.667 C 224.387 41.667,224.500 41.554,224.500 41.417 C 224.500 41.279,224.612 41.167,224.750 41.167 C 224.917 41.167,225.000 41.000,225.000 40.667 C 225.000 40.333,225.083 40.167,225.250 40.167 C 225.417 40.167,225.500 40.000,225.500 39.667 C 225.500 39.333,225.583 39.167,225.750 39.167 C 225.958 39.167,226.000 38.833,226.000 37.167 C 226.000 35.500,225.958 35.167,225.750 35.167 C 225.611 35.167,225.500 35.019,225.500 34.833 C 225.500 34.648,225.611 34.500,225.750 34.500 C 226.401 34.500,226.059 32.833,225.250 32.058 C 224.838 31.662,224.500 31.263,224.500 31.169 C 224.500 31.056,219.468 31.000,209.232 31.000 L 193.964 31.000 193.065 31.899 L 192.167 32.797 192.167 37.232 C 192.167 41.063,192.201 41.667,192.417 41.667 C 192.554 41.667,192.667 41.779,192.667 41.917 C 192.667 42.054,192.779 42.167,192.917 42.167 C 193.054 42.167,193.167 42.279,193.167 42.417 C 193.167 42.554,193.279 42.667,193.417 42.667 C 193.554 42.667,193.667 42.779,193.667 42.917 C 193.667 43.102,193.861 43.167,194.417 43.167 C 194.972 43.167,195.167 43.231,195.167 43.417 C 195.167 43.633,195.815 43.667,200.000 43.667 C 204.185 43.667,204.833 43.700,204.833 43.917 C 204.833 44.054,204.721 44.167,204.583 44.167 C 204.446 44.167,204.333 44.279,204.333 44.417 C 204.333 44.554,204.221 44.667,204.083 44.667 C 203.917 44.667,203.833 44.833,203.833 45.167 C 203.833 45.500,203.750 45.667,203.583 45.667 C 203.446 45.667,203.333 45.779,203.333 45.917 C 203.333 46.054,203.221 46.167,203.083 46.167 C 202.946 46.167,202.833 46.279,202.833 46.417 C 202.833 46.554,202.721 46.667,202.583 46.667 C 202.446 46.667,202.333 46.779,202.333 46.917 C 202.333 47.054,202.221 47.167,202.083 47.167 C 201.946 47.167,201.833 47.279,201.833 47.417 C 201.833 47.554,201.721 47.667,201.583 47.667 C 201.417 47.667,201.333 47.833,201.333 48.167 C 201.333 48.500,201.250 48.667,201.083 48.667 C 200.946 48.667,200.833 48.779,200.833 48.917 C 200.833 49.054,200.721 49.167,200.583 49.167 C 200.446 49.167,200.333 49.279,200.333 49.417 C 200.333 49.554,200.262 49.667,200.174 49.667 C 199.808 49.667,198.167 51.507,198.167 51.917 C 198.167 52.176,198.072 52.333,197.917 52.333 C 197.779 52.333,197.667 52.446,197.667 52.583 C 197.667 52.721,197.554 52.833,197.417 52.833 C 197.279 52.833,197.167 52.946,197.167 53.083 C 197.167 53.221,197.054 53.333,196.917 53.333 C 196.779 53.333,196.667 53.446,196.667 53.583 C 196.667 53.721,196.554 53.833,196.417 53.833 C 196.279 53.833,196.167 53.946,196.167 54.083 C 196.167 54.221,196.054 54.333,195.917 54.333 C 195.779 54.333,195.667 54.446,195.667 54.583 C 195.667 54.721,195.554 54.833,195.417 54.833 C 195.250 54.833,195.167 55.000,195.167 55.333 C 195.167 55.667,195.083 55.833,194.917 55.833 C 194.779 55.833,194.667 55.946,194.667 56.083 C 194.667 56.221,194.554 56.333,194.417 56.333 C 194.279 56.333,194.167 56.446,194.167 56.583 C 194.167 56.721,194.054 56.833,193.917 56.833 C 193.779 56.833,193.667 56.946,193.667 57.083 C 193.667 57.221,193.554 57.333,193.417 57.333 C 193.279 57.333,193.167 57.446,193.167 57.583 C 193.167 57.721,193.054 57.833,192.917 57.833 C 192.750 57.833,192.667 58.000,192.667 58.333 C 192.667 58.667,192.583 58.833,192.417 58.833 C 192.250 58.833,192.167 59.000,192.167 59.333 C 192.167 59.667,192.083 59.833,191.917 59.833 C 191.779 59.833,191.667 59.946,191.667 60.083 C 191.667 60.221,191.554 60.333,191.417 60.333 C 191.231 60.333,191.167 60.139,191.167 59.583 C 191.167 59.028,191.102 58.833,190.917 58.833 C 190.750 58.833,190.667 58.667,190.667 58.333 C 190.667 58.000,190.583 57.833,190.417 57.833 C 190.250 57.833,190.167 57.667,190.167 57.333 C 190.167 57.000,190.083 56.833,189.917 56.833 C 189.750 56.833,189.667 56.667,189.667 56.333 C 189.667 56.000,189.583 55.833,189.417 55.833 C 189.231 55.833,189.167 55.639,189.167 55.083 C 189.167 54.528,189.102 54.333,188.917 54.333 C 188.750 54.333,188.667 54.167,188.667 53.833 C 188.667 53.500,188.583 53.333,188.417 53.333 C 188.250 53.333,188.167 53.167,188.167 52.833 C 188.167 52.500,188.083 52.333,187.917 52.333 C 187.728 52.333,187.667 52.130,187.667 51.500 C 187.667 50.870,187.606 50.667,187.417 50.667 C 187.250 50.667,187.167 50.500,187.167 50.167 C 187.167 49.833,187.083 49.667,186.917 49.667 C 186.731 49.667,186.667 49.472,186.667 48.917 C 186.667 48.361,186.602 48.167,186.417 48.167 C 186.250 48.167,186.167 48.000,186.167 47.667 C 186.167 47.333,186.083 47.167,185.917 47.167 C 185.750 47.167,185.667 47.000,185.667 46.667 C 185.667 46.333,185.583 46.167,185.417 46.167 C 185.250 46.167,185.167 46.000,185.167 45.667 C 185.167 45.333,185.083 45.167,184.917 45.167 C 184.731 45.167,184.667 44.972,184.667 44.417 C 184.667 43.861,184.602 43.667,184.417 43.667 C 184.202 43.667,184.074 43.251,184.147 42.792 C 184.158 42.723,184.054 42.667,183.917 42.667 C 183.735 42.667,183.667 42.480,183.667 41.984 C 183.667 41.442,183.598 41.284,183.333 41.215 C 183.097 41.153,183.000 40.988,183.000 40.647 C 183.000 40.331,182.914 40.167,182.750 40.167 C 182.583 40.167,182.500 40.000,182.500 39.667 C 182.500 39.333,182.417 39.167,182.250 39.167 C 182.065 39.167,182.000 38.972,182.000 38.417 C 182.000 37.861,181.935 37.667,181.750 37.667 C 181.583 37.667,181.500 37.500,181.500 37.167 C 181.500 36.833,181.417 36.667,181.250 36.667 C 181.083 36.667,181.000 36.500,181.000 36.167 C 181.000 35.833,180.917 35.667,180.750 35.667 C 180.583 35.667,180.500 35.499,180.500 35.161 C 180.500 34.866,180.396 34.616,180.250 34.560 C 180.112 34.508,180.000 34.300,180.000 34.099 C 180.000 33.898,179.779 33.551,179.507 33.326 C 179.236 33.101,179.011 32.823,179.007 32.708 C 179.003 32.594,178.887 32.500,178.750 32.500 C 178.612 32.500,178.500 32.387,178.500 32.250 C 178.500 32.112,178.387 32.000,178.250 32.000 C 178.112 32.000,178.000 31.887,178.000 31.750 C 178.000 31.533,177.261 31.500,172.348 31.500 L 166.696 31.500 165.765 32.409 C 164.855 33.297,164.833 33.341,164.833 34.243 C 164.833 34.953,164.775 35.167,164.583 35.167 C 164.417 35.167,164.333 35.333,164.333 35.667 C 164.333 36.000,164.250 36.167,164.083 36.167 C 163.917 36.167,163.833 36.333,163.833 36.667 C 163.833 37.000,163.750 37.167,163.583 37.167 C 163.446 37.167,163.333 37.279,163.333 37.417 C 163.333 37.554,163.221 37.667,163.083 37.667 C 162.917 37.667,162.833 37.833,162.833 38.167 C 162.833 38.500,162.750 38.667,162.583 38.667 C 162.417 38.667,162.333 38.833,162.333 39.167 C 162.333 39.500,162.250 39.667,162.083 39.667 C 161.898 39.667,161.833 39.861,161.833 40.417 C 161.833 40.972,161.769 41.167,161.583 41.167 C 161.398 41.167,161.333 41.361,161.333 41.917 C 161.333 42.472,161.269 42.667,161.083 42.667 C 160.917 42.667,160.833 42.833,160.833 43.167 C 160.833 43.500,160.750 43.667,160.583 43.667 C 160.417 43.667,160.333 43.833,160.333 44.167 C 160.333 44.500,160.250 44.667,160.083 44.667 C 159.898 44.667,159.833 44.861,159.833 45.417 C 159.833 45.972,159.769 46.167,159.583 46.167 C 159.417 46.167,159.333 46.333,159.333 46.667 C 159.333 47.000,159.250 47.167,159.083 47.167 C 158.917 47.167,158.833 47.333,158.833 47.667 C 158.833 48.000,158.750 48.167,158.583 48.167 C 158.419 48.167,158.333 48.331,158.333 48.649 C 158.333 48.924,158.226 49.172,158.083 49.227 C 157.946 49.280,157.833 49.505,157.833 49.727 C 157.833 49.949,157.721 50.174,157.583 50.227 C 157.412 50.293,157.333 50.561,157.333 51.078 C 157.333 51.593,157.267 51.820,157.125 51.792 C 156.987 51.764,156.900 52.017,156.866 52.542 C 156.830 53.097,156.743 53.333,156.574 53.333 C 156.418 53.333,156.333 53.508,156.333 53.833 C 156.333 54.167,156.250 54.333,156.083 54.333 C 155.917 54.333,155.833 54.500,155.833 54.833 C 155.833 55.167,155.750 55.333,155.583 55.333 C 155.417 55.333,155.333 55.500,155.333 55.833 C 155.333 56.167,155.250 56.333,155.083 56.333 C 154.917 56.333,154.833 56.500,154.833 56.833 C 154.833 57.167,154.750 57.333,154.583 57.333 C 154.398 57.333,154.333 57.528,154.333 58.083 C 154.333 58.639,154.269 58.833,154.083 58.833 C 153.917 58.833,153.833 59.000,153.833 59.333 C 153.833 59.667,153.750 59.833,153.583 59.833 C 153.398 59.833,153.333 60.028,153.333 60.583 C 153.333 61.139,153.269 61.333,153.083 61.333 C 152.917 61.333,152.833 61.500,152.833 61.833 C 152.833 62.167,152.750 62.333,152.583 62.333 C 152.398 62.333,152.333 62.528,152.333 63.083 C 152.333 63.639,152.269 63.833,152.083 63.833 C 151.917 63.833,151.833 64.000,151.833 64.333 C 151.833 64.667,151.750 64.833,151.583 64.833 C 151.216 64.833,151.216 61.914,151.583 61.773 C 151.962 61.628,151.962 46.667,151.583 46.667 C 151.365 46.667,151.333 45.789,151.333 39.770 L 151.333 32.874 150.667 32.187 L 150.000 31.500 145.084 31.500 C 140.824 31.500,140.167 31.533,140.167 31.750 C 140.167 31.887,140.054 32.000,139.917 32.000 C 139.779 32.000,139.667 32.079,139.667 32.176 C 139.667 32.273,139.448 32.554,139.181 32.801 C 138.914 33.048,138.668 33.438,138.635 33.667 C 138.602 33.896,138.483 34.065,138.371 34.042 C 138.241 34.015,138.167 34.211,138.167 34.583 C 138.167 34.991,138.091 35.167,137.917 35.167 C 137.750 35.167,137.667 35.333,137.667 35.667 C 137.667 36.000,137.583 36.167,137.417 36.167 C 137.279 36.167,137.167 36.279,137.167 36.417 C 137.167 36.554,137.054 36.667,136.917 36.667 C 136.750 36.667,136.667 36.833,136.667 37.167 C 136.667 37.500,136.583 37.667,136.417 37.667 C 136.279 37.667,136.167 37.779,136.167 37.917 C 136.167 38.054,136.054 38.167,135.917 38.167 C 135.750 38.167,135.667 38.333,135.667 38.667 C 135.667 39.000,135.583 39.167,135.417 39.167 C 135.250 39.167,135.167 39.333,135.167 39.667 C 135.167 40.000,135.083 40.167,134.917 40.167 C 134.779 40.167,134.667 40.279,134.667 40.417 C 134.667 40.554,134.554 40.667,134.417 40.667 C 134.250 40.667,134.167 40.833,134.167 41.167 C 134.167 41.500,134.083 41.667,133.917 41.667 C 133.750 41.667,133.667 41.833,133.667 42.167 C 133.667 42.505,133.584 42.667,133.411 42.667 C 133.271 42.667,133.113 42.779,133.060 42.917 C 133.008 43.054,132.860 43.167,132.732 43.167 C 132.604 43.167,132.509 43.223,132.520 43.292 C 132.592 43.751,132.464 44.167,132.250 44.167 C 132.083 44.167,132.000 44.333,132.000 44.667 C 132.000 45.000,131.917 45.167,131.750 45.167 C 131.612 45.167,131.500 45.279,131.500 45.417 C 131.500 45.554,131.387 45.667,131.250 45.667 C 131.083 45.667,131.000 45.833,131.000 46.167 C 131.000 46.500,130.917 46.667,130.750 46.667 C 130.583 46.667,130.500 46.833,130.500 47.167 C 130.500 47.500,130.417 47.667,130.250 47.667 C 130.112 47.667,130.000 47.779,130.000 47.917 C 130.000 48.054,129.887 48.167,129.750 48.167 C 129.612 48.167,129.500 48.054,129.500 47.917 C 129.500 47.779,129.387 47.667,129.250 47.667 C 129.083 47.667,129.000 47.500,129.000 47.167 C 129.000 46.833,128.917 46.667,128.750 46.667 C 128.583 46.667,128.500 46.500,128.500 46.167 C 128.500 45.833,128.417 45.667,128.250 45.667 C 128.112 45.667,128.000 45.554,128.000 45.417 C 128.000 45.279,127.888 45.167,127.750 45.167 C 127.583 45.167,127.500 45.000,127.500 44.667 C 127.500 44.333,127.417 44.167,127.250 44.167 C 127.083 44.167,127.000 44.000,127.000 43.667 C 127.000 43.333,126.917 43.167,126.750 43.167 C 126.612 43.167,126.500 43.054,126.500 42.917 C 126.500 42.779,126.388 42.667,126.250 42.667 C 126.083 42.667,126.000 42.500,126.000 42.167 C 126.000 41.833,125.917 41.667,125.750 41.667 C 125.583 41.667,125.500 41.500,125.500 41.167 C 125.500 40.833,125.417 40.667,125.250 40.667 C 125.112 40.667,125.000 40.554,125.000 40.417 C 125.000 40.279,124.888 40.167,124.750 40.167 C 124.583 40.167,124.500 40.000,124.500 39.667 C 124.500 39.333,124.417 39.167,124.250 39.167 C 124.083 39.167,124.000 39.000,124.000 38.667 C 124.000 38.333,123.917 38.167,123.750 38.167 C 123.612 38.167,123.500 38.054,123.500 37.917 C 123.500 37.779,123.388 37.667,123.250 37.667 C 123.083 37.667,123.000 37.500,123.000 37.167 C 123.000 36.833,122.917 36.667,122.750 36.667 C 122.612 36.667,122.500 36.554,122.500 36.417 C 122.500 36.279,122.388 36.167,122.250 36.167 C 122.083 36.167,122.000 36.000,122.000 35.667 C 122.000 35.343,121.915 35.167,121.761 35.167 C 121.612 35.167,121.501 34.961,121.469 34.625 C 121.438 34.301,121.333 34.100,121.208 34.125 C 121.094 34.148,121.000 34.012,121.000 33.823 C 121.000 33.623,120.926 33.526,120.822 33.590 C 120.724 33.651,120.603 33.543,120.553 33.350 C 120.502 33.158,120.357 33.000,120.231 33.000 C 120.104 33.000,120.000 32.887,120.000 32.750 C 120.000 32.612,119.888 32.500,119.750 32.500 C 119.612 32.500,119.500 32.387,119.500 32.250 C 119.500 32.112,119.388 32.000,119.250 32.000 C 119.112 32.000,119.000 31.887,119.000 31.750 C 119.000 31.533,118.340 31.500,114.064 31.500 L 109.127 31.500 108.480 32.147 L 107.833 32.794 107.833 48.064 C 107.833 61.526,107.804 63.333,107.583 63.333 C 107.417 63.333,107.333 63.167,107.333 62.833 C 107.333 62.500,107.250 62.333,107.083 62.333 C 106.946 62.333,106.833 62.221,106.833 62.083 C 106.833 61.946,106.721 61.833,106.583 61.833 C 106.398 61.833,106.333 61.639,106.333 61.083 C 106.333 60.528,106.269 60.333,106.083 60.333 C 105.898 60.333,105.833 60.139,105.833 59.583 C 105.833 59.028,105.769 58.833,105.583 58.833 C 105.417 58.833,105.333 58.667,105.333 58.333 C 105.333 58.000,105.250 57.833,105.083 57.833 C 104.898 57.833,104.833 57.639,104.833 57.083 C 104.833 56.528,104.769 56.333,104.583 56.333 C 104.417 56.333,104.333 56.167,104.333 55.833 C 104.333 55.500,104.250 55.333,104.083 55.333 C 103.917 55.333,103.833 55.167,103.833 54.833 C 103.833 54.500,103.750 54.333,103.583 54.333 C 103.417 54.333,103.333 54.167,103.333 53.833 C 103.333 53.500,103.250 53.333,103.083 53.333 C 102.917 53.333,102.833 53.167,102.833 52.833 C 102.833 52.500,102.750 52.333,102.583 52.333 C 102.398 52.333,102.333 52.138,102.333 51.578 C 102.333 51.061,102.255 50.793,102.083 50.727 C 101.946 50.674,101.833 50.449,101.833 50.227 C 101.833 50.005,101.721 49.780,101.583 49.727 C 101.431 49.668,101.333 49.416,101.333 49.077 C 101.333 48.773,101.221 48.411,101.083 48.274 C 100.946 48.136,100.833 47.911,100.833 47.774 C 100.833 47.636,100.733 47.424,100.611 47.302 C 100.489 47.180,100.338 46.875,100.275 46.623 C 100.212 46.372,100.049 46.167,99.913 46.167 C 99.750 46.167,99.667 45.997,99.667 45.667 C 99.667 45.333,99.583 45.167,99.417 45.167 C 99.231 45.167,99.167 44.972,99.167 44.417 C 99.167 43.861,99.102 43.667,98.917 43.667 C 98.750 43.667,98.667 43.500,98.667 43.167 C 98.667 42.833,98.583 42.667,98.417 42.667 C 98.250 42.667,98.167 42.500,98.167 42.167 C 98.167 41.833,98.083 41.667,97.917 41.667 C 97.731 41.667,97.667 41.472,97.667 40.917 C 97.667 40.361,97.602 40.167,97.417 40.167 C 97.250 40.167,97.167 40.000,97.167 39.667 C 97.167 39.333,97.083 39.167,96.917 39.167 C 96.731 39.167,96.667 38.972,96.667 38.417 C 96.667 37.861,96.602 37.667,96.417 37.667 C 96.250 37.667,96.167 37.500,96.167 37.167 C 96.167 36.833,96.083 36.667,95.917 36.667 C 95.750 36.667,95.667 36.500,95.667 36.167 C 95.667 35.833,95.583 35.667,95.417 35.667 C 95.249 35.667,95.167 35.499,95.167 35.161 C 95.167 34.866,95.063 34.616,94.917 34.560 C 94.774 34.506,94.667 34.257,94.667 33.982 C 94.667 33.717,94.594 33.500,94.506 33.500 C 94.296 33.500,93.167 32.371,93.167 32.161 C 93.167 32.072,92.942 32.000,92.667 32.000 C 92.333 32.000,92.167 31.917,92.167 31.750 C 92.167 31.533,91.435 31.500,86.583 31.500 C 81.731 31.500,81.000 31.533,81.000 31.750 C 81.000 31.887,80.887 32.000,80.750 32.000 C 80.612 32.000,80.500 32.112,80.500 32.250 C 80.500 32.387,80.387 32.500,80.250 32.500 C 80.112 32.500,80.000 32.612,80.000 32.750 C 80.000 32.887,79.887 33.000,79.750 33.000 C 79.565 33.000,79.500 33.195,79.500 33.755 C 79.500 34.273,79.421 34.541,79.250 34.606 C 79.107 34.661,79.000 34.910,79.000 35.184 C 79.000 35.502,78.915 35.667,78.750 35.667 C 78.565 35.667,78.500 35.861,78.500 36.417 C 78.500 36.972,78.435 37.167,78.250 37.167 C 78.083 37.167,78.000 37.333,78.000 37.667 C 78.000 38.000,77.917 38.167,77.750 38.167 C 77.583 38.167,77.500 38.333,77.500 38.667 C 77.500 39.000,77.417 39.167,77.250 39.167 C 77.083 39.167,77.000 39.333,77.000 39.667 C 77.000 40.000,76.917 40.167,76.750 40.167 C 76.583 40.167,76.500 40.333,76.500 40.667 C 76.500 41.000,76.417 41.167,76.250 41.167 C 76.065 41.167,76.000 41.361,76.000 41.917 C 76.000 42.472,75.935 42.667,75.750 42.667 C 75.583 42.667,75.500 42.833,75.500 43.167 C 75.500 43.500,75.417 43.667,75.250 43.667 C 75.065 43.667,75.000 43.861,75.000 44.417 C 75.000 44.972,74.935 45.167,74.750 45.167 C 74.583 45.167,74.500 45.333,74.500 45.667 C 74.500 46.000,74.417 46.167,74.250 46.167 C 74.083 46.167,74.000 46.333,74.000 46.667 C 74.000 47.000,73.917 47.167,73.750 47.167 C 73.583 47.167,73.500 47.333,73.500 47.667 C 73.500 48.000,73.417 48.167,73.250 48.167 C 73.083 48.167,73.000 48.333,73.000 48.667 C 73.000 49.000,72.917 49.167,72.750 49.167 C 72.566 49.167,72.500 49.359,72.500 49.899 C 72.500 50.396,72.420 50.662,72.250 50.727 C 72.104 50.783,72.000 51.033,72.000 51.328 C 72.000 51.643,71.922 51.818,71.792 51.792 C 71.667 51.767,71.562 51.967,71.531 52.292 C 71.499 52.627,71.388 52.833,71.239 52.833 C 71.067 52.833,71.000 53.042,71.000 53.583 C 71.000 54.139,70.935 54.333,70.750 54.333 C 70.583 54.333,70.500 54.500,70.500 54.833 C 70.500 55.167,70.417 55.333,70.250 55.333 C 70.065 55.333,70.000 55.528,70.000 56.083 C 70.000 56.639,69.935 56.833,69.750 56.833 C 69.583 56.833,69.500 57.000,69.500 57.333 C 69.500 57.667,69.417 57.833,69.250 57.833 C 69.083 57.833,69.000 58.000,69.000 58.333 C 69.000 58.667,68.917 58.833,68.750 58.833 C 68.583 58.833,68.500 59.000,68.500 59.333 C 68.500 59.667,68.417 59.833,68.250 59.833 C 68.065 59.833,68.000 60.028,68.000 60.583 C 68.000 61.139,67.935 61.333,67.750 61.333 C 67.583 61.333,67.500 61.500,67.500 61.833 C 67.500 62.167,67.417 62.333,67.250 62.333 C 67.083 62.333,67.000 62.500,67.000 62.833 C 67.000 63.150,66.915 63.333,66.768 63.333 C 66.487 63.333,66.333 63.692,66.333 64.347 C 66.333 64.614,66.260 64.833,66.170 64.833 C 66.080 64.833,65.955 65.039,65.892 65.290 C 65.829 65.541,65.677 65.847,65.555 65.969 C 65.252 66.271,65.271 67.153,65.583 67.273 C 65.721 67.326,65.833 67.473,65.833 67.601 C 65.833 67.729,65.938 67.833,66.066 67.833 C 66.193 67.833,66.341 67.946,66.394 68.083 C 66.472 68.289,66.894 68.333,68.745 68.333 C 70.638 68.333,71.000 68.293,71.000 68.083 C 71.000 67.889,71.222 67.833,72.000 67.833 C 72.778 67.833,73.000 67.889,73.000 68.083 C 73.000 68.295,73.417 68.333,75.750 68.333 C 78.083 68.333,78.500 68.295,78.500 68.083 C 78.500 67.946,78.612 67.833,78.750 67.833 C 78.887 67.833,79.000 67.721,79.000 67.583 C 79.000 67.446,79.112 67.333,79.250 67.333 C 79.387 67.333,79.500 67.221,79.500 67.083 C 79.500 66.946,79.612 66.833,79.750 66.833 C 79.935 66.833,80.000 66.639,80.000 66.083 C 80.000 65.528,80.065 65.333,80.250 65.333 C 80.435 65.333,80.500 65.139,80.500 64.583 C 80.500 64.028,80.565 63.833,80.750 63.833 C 80.935 63.833,81.000 63.639,81.000 63.083 L 81.000 62.333 86.833 62.333 C 91.907 62.333,92.667 62.366,92.667 62.583 C 92.667 62.721,92.779 62.833,92.917 62.833 C 93.083 62.833,93.167 63.000,93.167 63.333 C 93.167 63.667,93.250 63.833,93.417 63.833 C 93.617 63.833,93.667 64.083,93.667 65.083 C 93.667 66.083,93.717 66.333,93.917 66.333 C 94.054 66.333,94.167 66.446,94.167 66.583 C 94.167 66.721,94.279 66.833,94.417 66.833 C 94.554 66.833,94.667 66.946,94.667 67.083 C 94.667 67.221,94.779 67.333,94.917 67.333 C 95.054 67.333,95.167 67.446,95.167 67.583 C 95.167 67.750,95.333 67.833,95.667 67.833 C 96.000 67.833,96.167 67.917,96.167 68.083 C 96.167 68.301,96.898 68.333,101.750 68.333 C 106.602 68.333,107.333 68.301,107.333 68.083 C 107.333 67.946,107.446 67.833,107.583 67.833 C 107.721 67.833,107.833 67.721,107.833 67.583 C 107.833 67.417,108.000 67.333,108.333 67.333 C 108.667 67.333,108.833 67.417,108.833 67.583 C 108.833 67.721,108.946 67.833,109.083 67.833 C 109.221 67.833,109.333 67.946,109.333 68.083 C 109.333 68.300,110.009 68.333,114.417 68.333 C 118.824 68.333,119.500 68.300,119.500 68.083 C 119.500 67.946,119.612 67.833,119.750 67.833 C 119.888 67.833,120.000 67.721,120.000 67.583 C 120.000 67.446,120.112 67.333,120.250 67.333 C 120.388 67.333,120.500 67.221,120.500 67.083 C 120.500 66.946,120.612 66.833,120.750 66.833 C 120.967 66.833,121.000 66.167,121.000 61.833 C 121.000 57.500,121.033 56.833,121.250 56.833 C 121.417 56.833,121.500 57.000,121.500 57.333 C 121.500 57.667,121.583 57.833,121.750 57.833 C 121.888 57.833,122.000 57.946,122.000 58.083 C 122.000 58.221,122.112 58.333,122.250 58.333 C 122.417 58.333,122.500 58.500,122.500 58.833 C 122.500 59.167,122.583 59.333,122.750 59.333 C 122.888 59.333,123.000 59.446,123.000 59.583 C 123.000 59.721,123.112 59.833,123.250 59.833 C 123.417 59.833,123.500 60.000,123.500 60.333 C 123.500 60.667,123.583 60.833,123.750 60.833 C 123.888 60.833,124.000 60.946,124.000 61.083 C 124.000 61.221,124.112 61.333,124.250 61.333 C 124.388 61.333,124.500 61.446,124.500 61.583 C 124.500 61.721,124.612 61.833,124.750 61.833 C 124.917 61.833,125.000 62.000,125.000 62.333 C 125.000 62.667,125.083 62.833,125.250 62.833 C 125.388 62.833,125.500 62.946,125.500 63.083 C 125.500 63.221,125.612 63.333,125.750 63.333 C 125.888 63.333,126.000 63.446,126.000 63.583 C 126.000 63.721,126.112 63.833,126.250 63.833 C 126.388 63.833,126.500 63.946,126.500 64.083 C 126.500 64.250,126.667 64.333,127.000 64.333 C 127.333 64.333,127.500 64.417,127.500 64.583 C 127.500 64.750,127.667 64.833,128.000 64.833 C 128.333 64.833,128.500 64.917,128.500 65.083 C 128.500 65.287,128.778 65.333,130.000 65.333 C 131.222 65.333,131.500 65.287,131.500 65.083 C 131.500 64.917,131.667 64.833,132.000 64.833 C 132.333 64.833,132.500 64.750,132.500 64.583 C 132.500 64.446,132.612 64.333,132.750 64.333 C 132.887 64.333,133.000 64.221,133.000 64.083 C 133.000 63.946,133.115 63.833,133.255 63.833 C 133.396 63.833,133.554 63.721,133.606 63.583 C 133.659 63.446,133.807 63.333,133.934 63.333 C 134.062 63.333,134.158 63.277,134.147 63.208 C 134.074 62.749,134.202 62.333,134.417 62.333 C 134.554 62.333,134.667 62.229,134.667 62.101 C 134.667 61.973,134.779 61.826,134.917 61.773 C 135.054 61.720,135.170 61.506,135.174 61.297 C 135.178 61.085,135.399 60.736,135.674 60.508 C 135.945 60.283,136.167 59.935,136.167 59.734 C 136.167 59.533,136.279 59.326,136.417 59.273 C 136.554 59.220,136.667 58.995,136.667 58.773 C 136.667 58.551,136.779 58.326,136.917 58.273 C 137.054 58.220,137.167 58.021,137.167 57.831 C 137.167 57.640,137.373 57.293,137.625 57.059 L 138.083 56.634 138.127 61.984 C 138.165 66.586,138.206 67.333,138.419 67.333 C 138.555 67.333,138.667 67.446,138.667 67.583 C 138.667 67.721,138.779 67.833,138.917 67.833 C 139.054 67.833,139.167 67.946,139.167 68.083 C 139.167 68.301,139.889 68.333,144.672 68.333 C 149.412 68.333,150.190 68.299,150.273 68.083 C 150.326 67.946,150.473 67.833,150.601 67.833 C 150.729 67.833,150.833 67.721,150.833 67.583 C 150.833 67.446,150.946 67.333,151.083 67.333 C 151.221 67.333,151.333 67.446,151.333 67.583 C 151.333 67.721,151.446 67.833,151.583 67.833 C 151.721 67.833,151.833 67.946,151.833 68.083 C 151.833 68.301,152.583 68.333,157.583 68.333 C 162.583 68.333,163.333 68.301,163.333 68.083 C 163.333 67.946,163.446 67.833,163.583 67.833 C 163.721 67.833,163.833 67.721,163.833 67.583 C 163.833 67.446,163.946 67.333,164.083 67.333 C 164.221 67.333,164.333 67.221,164.333 67.083 C 164.333 66.946,164.446 66.833,164.583 66.833 C 164.750 66.833,164.833 66.667,164.833 66.333 C 164.833 66.000,164.917 65.833,165.083 65.833 C 165.250 65.833,165.333 65.667,165.333 65.333 C 165.333 65.000,165.417 64.833,165.583 64.833 C 165.750 64.833,165.833 64.667,165.833 64.333 C 165.833 64.000,165.917 63.833,166.083 63.833 C 166.250 63.833,166.333 63.667,166.333 63.333 C 166.333 62.995,166.416 62.833,166.589 62.833 C 166.729 62.833,166.887 62.721,166.940 62.583 C 167.022 62.368,167.799 62.333,172.518 62.333 L 178.000 62.333 178.000 63.083 C 178.000 63.639,178.065 63.833,178.250 63.833 C 178.435 63.833,178.500 64.028,178.500 64.583 C 178.500 65.139,178.565 65.333,178.750 65.333 C 178.917 65.333,179.000 65.500,179.000 65.833 C 179.000 66.167,179.083 66.333,179.250 66.333 C 179.387 66.333,179.500 66.446,179.500 66.583 C 179.500 66.721,179.612 66.833,179.750 66.833 C 179.887 66.833,180.000 66.946,180.000 67.083 C 180.000 67.221,180.112 67.333,180.250 67.333 C 180.387 67.333,180.500 67.446,180.500 67.583 C 180.500 67.778,180.722 67.833,181.500 67.833 C 182.278 67.833,182.500 67.889,182.500 68.083 C 182.500 68.300,183.176 68.333,187.583 68.333 C 191.991 68.333,192.667 68.300,192.667 68.083 C 192.667 67.946,192.779 67.833,192.917 67.833 C 193.054 67.833,193.167 67.946,193.167 68.083 C 193.167 68.221,193.279 68.333,193.417 68.333 C 193.554 68.333,193.667 68.446,193.667 68.583 C 193.667 68.804,195.519 68.833,209.333 68.833 C 223.148 68.833,225.000 68.804,225.000 68.583 C 225.000 68.446,225.112 68.333,225.250 68.333 C 225.387 68.333,225.500 68.221,225.500 68.083 C 225.500 67.946,225.612 67.833,225.750 67.833 C 225.887 67.833,226.000 67.721,226.000 67.583 C 226.000 67.446,226.112 67.333,226.250 67.333 C 226.466 67.333,226.500 66.694,226.500 62.583 C 226.500 58.472,226.534 57.833,226.750 57.833 C 226.917 57.833,227.000 58.000,227.000 58.333 C 227.000 58.667,227.083 58.833,227.250 58.833 C 227.387 58.833,227.500 58.946,227.500 59.083 C 227.500 59.221,227.612 59.333,227.750 59.333 C 227.917 59.333,228.000 59.500,228.000 59.833 C 228.000 60.167,228.083 60.333,228.250 60.333 C 228.387 60.333,228.500 60.446,228.500 60.583 C 228.500 60.721,228.612 60.833,228.750 60.833 C 228.887 60.833,229.000 60.946,229.000 61.083 C 229.000 61.221,229.112 61.333,229.250 61.333 C 229.387 61.333,229.500 61.446,229.500 61.583 C 229.500 61.721,229.612 61.833,229.750 61.833 C 229.887 61.833,230.000 61.946,230.000 62.083 C 230.000 62.221,230.112 62.333,230.250 62.333 C 230.387 62.333,230.500 62.446,230.500 62.583 C 230.500 62.721,230.612 62.833,230.750 62.833 C 230.887 62.833,231.000 62.946,231.000 63.083 C 231.000 63.221,231.075 63.333,231.167 63.333 C 231.373 63.333,232.000 63.946,232.000 64.147 C 232.000 64.228,232.158 64.336,232.350 64.386 C 232.543 64.436,232.651 64.557,232.590 64.655 C 232.530 64.753,232.589 64.833,232.722 64.833 C 232.855 64.833,233.008 64.946,233.060 65.083 C 233.116 65.229,233.366 65.333,233.661 65.333 C 233.999 65.333,234.167 65.416,234.167 65.583 C 234.167 65.721,234.279 65.833,234.417 65.833 C 234.554 65.833,234.667 65.946,234.667 66.083 C 234.667 66.250,234.833 66.333,235.167 66.333 C 235.500 66.333,235.667 66.417,235.667 66.583 C 235.667 66.769,235.861 66.833,236.417 66.833 C 236.972 66.833,237.167 66.898,237.167 67.083 C 237.167 67.250,237.333 67.333,237.667 67.333 C 238.000 67.333,238.167 67.417,238.167 67.583 C 238.167 67.750,238.333 67.833,238.667 67.833 C 239.000 67.833,239.167 67.917,239.167 68.083 C 239.167 68.278,239.389 68.333,240.167 68.333 C 240.944 68.333,241.167 68.389,241.167 68.583 C 241.167 68.799,241.722 68.833,245.167 68.833 C 248.611 68.833,249.167 68.799,249.167 68.583 C 249.167 68.382,249.426 68.333,250.500 68.333 C 251.574 68.333,251.833 68.285,251.833 68.083 C 251.833 67.917,252.000 67.833,252.333 67.833 C 252.667 67.833,252.833 67.750,252.833 67.583 C 252.833 67.398,253.028 67.333,253.583 67.333 C 254.139 67.333,254.333 67.269,254.333 67.083 C 254.333 66.917,254.500 66.833,254.833 66.833 C 255.167 66.833,255.333 66.750,255.333 66.583 C 255.333 66.417,255.500 66.333,255.833 66.333 C 256.167 66.333,256.333 66.250,256.333 66.083 C 256.333 65.917,256.500 65.833,256.833 65.833 C 257.167 65.833,257.333 65.750,257.333 65.583 C 257.333 65.446,257.446 65.333,257.583 65.333 C 257.721 65.333,257.833 65.221,257.833 65.083 C 257.833 64.946,257.946 64.833,258.083 64.833 C 258.221 64.833,258.333 64.721,258.333 64.583 C 258.333 64.417,258.500 64.333,258.833 64.333 C 259.167 64.333,259.333 64.250,259.333 64.083 C 259.333 63.946,259.446 63.833,259.583 63.833 C 259.721 63.833,259.833 63.721,259.833 63.583 C 259.833 63.446,259.946 63.333,260.083 63.333 C 260.221 63.333,260.333 63.221,260.333 63.083 C 260.333 62.946,260.446 62.833,260.583 62.833 C 260.721 62.833,260.833 62.721,260.833 62.583 C 260.833 62.446,260.946 62.333,261.083 62.333 C 261.221 62.333,261.333 62.221,261.333 62.083 C 261.333 61.946,261.446 61.833,261.583 61.833 C 261.721 61.833,261.833 61.721,261.833 61.583 C 261.833 61.446,261.946 61.333,262.083 61.333 C 262.250 61.333,262.333 61.167,262.333 60.833 C 262.333 60.500,262.417 60.333,262.583 60.333 C 262.721 60.333,262.833 60.221,262.833 60.083 C 262.833 59.946,262.946 59.833,263.083 59.833 C 263.221 59.833,263.333 59.721,263.333 59.583 C 263.333 59.446,263.446 59.333,263.583 59.333 C 263.750 59.333,263.833 59.167,263.833 58.833 C 263.833 58.500,263.917 58.333,264.083 58.333 C 264.250 58.333,264.333 58.167,264.333 57.833 C 264.333 57.500,264.417 57.333,264.583 57.333 C 264.769 57.333,264.833 57.139,264.833 56.583 C 264.833 56.028,264.898 55.833,265.083 55.833 C 265.269 55.833,265.333 55.639,265.333 55.083 C 265.333 54.528,265.398 54.333,265.583 54.333 C 265.799 54.333,265.833 53.713,265.833 49.750 C 265.833 45.787,265.799 45.167,265.583 45.167 C 265.398 45.167,265.333 44.972,265.333 44.417 C 265.333 43.861,265.269 43.667,265.083 43.667 C 264.917 43.667,264.833 43.500,264.833 43.167 C 264.833 42.833,264.750 42.667,264.583 42.667 C 264.398 42.667,264.333 42.472,264.333 41.917 C 264.333 41.361,264.269 41.167,264.083 41.167 C 263.946 41.167,263.833 41.054,263.833 40.917 C 263.833 40.779,263.721 40.667,263.583 40.667 C 263.417 40.667,263.333 40.500,263.333 40.167 C 263.333 39.833,263.250 39.667,263.083 39.667 C 262.946 39.667,262.833 39.554,262.833 39.417 C 262.833 39.279,262.721 39.167,262.583 39.167 C 262.446 39.167,262.333 39.054,262.333 38.917 C 262.333 38.779,262.221 38.667,262.083 38.667 C 261.917 38.667,261.833 38.500,261.833 38.167 C 261.833 37.833,261.750 37.667,261.583 37.667 C 261.446 37.667,261.333 37.554,261.333 37.417 C 261.333 37.279,261.221 37.167,261.083 37.167 C 260.946 37.167,260.833 37.054,260.833 36.917 C 260.833 36.779,260.721 36.667,260.583 36.667 C 260.446 36.667,260.333 36.554,260.333 36.417 C 260.333 36.279,260.221 36.167,260.083 36.167 C 259.946 36.167,259.833 36.054,259.833 35.917 C 259.833 35.750,259.667 35.667,259.333 35.667 C 259.000 35.667,258.833 35.583,258.833 35.417 C 258.833 35.279,258.721 35.167,258.583 35.167 C 258.446 35.167,258.333 35.092,258.333 35.000 C 258.333 34.783,257.621 34.071,257.458 34.125 C 257.390 34.148,257.333 34.017,257.333 33.833 C 257.333 33.574,257.222 33.500,256.833 33.500 C 256.500 33.500,256.333 33.417,256.333 33.250 C 256.333 33.083,256.167 33.000,255.833 33.000 C 255.500 33.000,255.333 32.917,255.333 32.750 C 255.333 32.583,255.167 32.500,254.833 32.500 C 254.500 32.500,254.333 32.417,254.333 32.250 C 254.333 32.065,254.139 32.000,253.583 32.000 C 253.028 32.000,252.833 31.935,252.833 31.750 C 252.833 31.555,252.611 31.500,251.828 31.500 C 251.088 31.500,250.798 31.434,250.727 31.250 C 250.650 31.050,250.285 31.000,248.899 31.000 C 247.470 31.000,247.167 30.956,247.167 30.750 C 247.167 30.542,246.833 30.500,245.167 30.500 C 243.500 30.500,243.167 30.542,243.167 30.750 M268.500 31.250 C 268.500 31.387,268.387 31.500,268.250 31.500 C 268.112 31.500,268.000 31.613,268.000 31.750 C 268.000 31.887,267.887 32.000,267.750 32.000 C 267.612 32.000,267.500 32.112,267.500 32.250 C 267.500 32.387,267.387 32.500,267.250 32.500 C 267.029 32.500,267.000 34.519,267.000 49.667 C 267.000 64.815,267.029 66.833,267.250 66.833 C 267.387 66.833,267.500 66.946,267.500 67.083 C 267.500 67.221,267.612 67.333,267.750 67.333 C 267.887 67.333,268.000 67.446,268.000 67.583 C 268.000 67.721,268.112 67.833,268.250 67.833 C 268.387 67.833,268.500 67.946,268.500 68.083 C 268.500 68.221,268.612 68.333,268.750 68.333 C 268.887 68.333,269.000 68.446,269.000 68.583 C 269.000 68.801,269.750 68.833,274.750 68.833 C 279.750 68.833,280.500 68.801,280.500 68.583 C 280.500 68.446,280.612 68.333,280.750 68.333 C 280.887 68.333,281.000 68.221,281.000 68.083 C 281.000 67.946,281.112 67.833,281.250 67.833 C 281.387 67.833,281.500 67.721,281.500 67.583 C 281.500 67.446,281.612 67.333,281.750 67.333 C 281.887 67.333,282.000 67.221,282.000 67.083 C 282.000 66.946,282.112 66.833,282.250 66.833 C 282.417 66.833,282.500 66.667,282.500 66.333 C 282.500 66.000,282.417 65.833,282.250 65.833 C 282.038 65.833,282.000 65.415,282.000 63.071 C 282.000 60.527,282.023 60.314,282.292 60.373 C 282.452 60.408,282.565 60.526,282.542 60.635 C 282.519 60.744,282.604 60.833,282.732 60.833 C 282.860 60.833,283.008 60.946,283.060 61.083 C 283.113 61.221,283.271 61.333,283.411 61.333 C 283.552 61.333,283.667 61.446,283.667 61.583 C 283.667 61.721,283.779 61.833,283.917 61.833 C 284.083 61.833,284.167 62.000,284.167 62.333 C 284.167 62.667,284.250 62.833,284.417 62.833 C 284.554 62.833,284.667 62.946,284.667 63.083 C 284.667 63.221,284.779 63.333,284.917 63.333 C 285.083 63.333,285.167 63.500,285.167 63.833 C 285.167 64.167,285.250 64.333,285.417 64.333 C 285.554 64.333,285.667 64.446,285.667 64.583 C 285.667 64.721,285.779 64.833,285.917 64.833 C 286.054 64.833,286.167 64.946,286.167 65.083 C 286.167 65.221,286.279 65.333,286.417 65.333 C 286.583 65.333,286.667 65.500,286.667 65.833 C 286.667 66.167,286.750 66.333,286.917 66.333 C 287.054 66.333,287.167 66.446,287.167 66.583 C 287.167 66.721,287.279 66.833,287.417 66.833 C 287.554 66.833,287.667 66.946,287.667 67.083 C 287.667 67.221,287.779 67.333,287.917 67.333 C 288.054 67.333,288.167 67.446,288.167 67.583 C 288.167 67.721,288.279 67.833,288.417 67.833 C 288.554 67.833,288.667 67.946,288.667 68.083 C 288.667 68.221,288.779 68.333,288.917 68.333 C 289.054 68.333,289.167 68.446,289.167 68.583 C 289.167 68.801,289.926 68.833,295.000 68.833 C 298.778 68.833,300.833 68.775,300.833 68.667 C 300.833 68.451,301.451 67.833,301.667 67.833 C 301.758 67.833,301.833 67.721,301.833 67.583 C 301.833 67.446,301.946 67.333,302.083 67.333 C 302.221 67.333,302.333 67.221,302.333 67.083 C 302.333 66.946,302.446 66.833,302.583 66.833 C 302.769 66.833,302.833 66.639,302.833 66.083 C 302.833 65.528,302.769 65.333,302.583 65.333 C 302.446 65.333,302.333 65.221,302.333 65.083 C 302.333 64.946,302.221 64.833,302.083 64.833 C 301.917 64.833,301.833 64.667,301.833 64.333 C 301.833 64.000,301.750 63.833,301.583 63.833 C 301.419 63.833,301.333 63.669,301.333 63.353 C 301.333 63.005,301.237 62.847,300.983 62.781 C 300.790 62.730,300.683 62.609,300.743 62.511 C 300.804 62.413,300.745 62.333,300.614 62.333 C 300.482 62.333,300.330 62.110,300.275 61.833 C 300.216 61.540,300.070 61.333,299.921 61.333 C 299.781 61.333,299.667 61.221,299.667 61.083 C 299.667 60.946,299.554 60.833,299.417 60.833 C 299.279 60.833,299.167 60.721,299.167 60.583 C 299.167 60.446,299.054 60.333,298.917 60.333 C 298.750 60.333,298.667 60.167,298.667 59.833 C 298.667 59.500,298.583 59.333,298.417 59.333 C 298.250 59.333,298.167 59.167,298.167 58.833 C 298.167 58.500,298.083 58.333,297.917 58.333 C 297.779 58.333,297.667 58.221,297.667 58.083 C 297.667 57.946,297.554 57.833,297.417 57.833 C 297.231 57.833,297.167 57.639,297.167 57.083 C 297.167 56.528,297.231 56.333,297.417 56.333 C 297.554 56.333,297.667 56.221,297.667 56.083 C 297.667 55.946,297.779 55.833,297.917 55.833 C 298.054 55.833,298.167 55.721,298.167 55.583 C 298.167 55.446,298.279 55.333,298.417 55.333 C 298.583 55.333,298.667 55.167,298.667 54.833 C 298.667 54.500,298.750 54.333,298.917 54.333 C 299.054 54.333,299.167 54.221,299.167 54.083 C 299.167 53.946,299.279 53.833,299.417 53.833 C 299.554 53.833,299.667 53.762,299.667 53.674 C 299.667 53.502,300.566 52.549,300.610 52.674 C 300.679 52.871,301.333 51.822,301.333 51.515 C 301.333 51.317,301.441 51.167,301.583 51.167 C 301.769 51.167,301.833 50.972,301.833 50.417 C 301.833 49.861,301.898 49.667,302.083 49.667 C 302.298 49.667,302.333 49.167,302.333 46.167 L 302.333 42.667 302.833 42.667 C 303.167 42.667,303.333 42.750,303.333 42.917 C 303.333 43.131,303.833 43.167,306.833 43.167 L 310.333 43.167 310.333 55.000 C 310.333 65.407,310.363 66.833,310.583 66.833 C 310.721 66.833,310.833 66.946,310.833 67.083 C 310.833 67.221,310.946 67.333,311.083 67.333 C 311.221 67.333,311.333 67.446,311.333 67.583 C 311.333 67.721,311.446 67.833,311.583 67.833 C 311.721 67.833,311.833 67.946,311.833 68.083 C 311.833 68.301,312.565 68.333,317.417 68.333 C 322.269 68.333,323.000 68.301,323.000 68.083 C 323.000 67.946,323.112 67.833,323.250 67.833 C 323.387 67.833,323.500 67.721,323.500 67.583 C 323.500 67.446,323.612 67.333,323.750 67.333 C 323.887 67.333,324.000 67.221,324.000 67.083 C 324.000 66.946,324.112 66.833,324.250 66.833 C 324.470 66.833,324.500 65.491,324.500 55.750 C 324.500 46.009,324.530 44.667,324.750 44.667 C 324.935 44.667,325.000 44.472,325.000 43.917 L 325.000 43.167 327.000 43.167 C 328.667 43.167,329.000 43.125,329.000 42.917 C 329.000 42.708,329.333 42.667,331.000 42.667 C 332.667 42.667,333.000 42.625,333.000 42.417 C 333.000 42.279,333.104 42.167,333.232 42.167 C 333.360 42.167,333.508 42.054,333.560 41.917 C 333.613 41.779,333.771 41.667,333.911 41.667 C 334.052 41.667,334.158 41.610,334.147 41.542 C 334.050 40.928,334.199 40.167,334.417 40.167 C 334.609 40.167,334.667 39.953,334.667 39.245 C 334.667 38.579,334.597 38.296,334.417 38.227 C 334.279 38.174,334.167 38.059,334.167 37.970 C 334.167 37.882,334.279 37.697,334.417 37.560 C 334.611 37.365,334.667 36.867,334.667 35.328 L 334.667 33.347 334.007 32.673 C 333.644 32.303,333.269 32.000,333.173 32.000 C 333.078 32.000,333.000 31.887,333.000 31.750 C 333.000 31.530,331.157 31.500,317.417 31.500 C 303.676 31.500,301.833 31.530,301.833 31.750 C 301.833 31.887,301.721 32.000,301.583 32.000 C 301.446 32.000,301.333 32.112,301.333 32.250 C 301.333 32.387,301.221 32.500,301.083 32.500 C 300.873 32.500,300.833 32.870,300.833 34.833 C 300.833 36.796,300.794 37.167,300.583 37.167 C 300.446 37.167,300.333 37.310,300.333 37.484 C 300.333 37.720,300.247 37.780,300.000 37.715 C 299.817 37.667,299.667 37.524,299.667 37.397 C 299.667 37.270,299.554 37.167,299.417 37.167 C 299.279 37.167,299.167 37.054,299.167 36.917 C 299.167 36.779,299.054 36.667,298.917 36.667 C 298.779 36.667,298.667 36.554,298.667 36.417 C 298.667 36.279,298.554 36.167,298.417 36.167 C 298.279 36.167,298.167 36.054,298.167 35.917 C 298.167 35.779,298.054 35.667,297.917 35.667 C 297.779 35.667,297.667 35.554,297.667 35.417 C 297.667 35.279,297.554 35.167,297.417 35.167 C 297.279 35.167,297.167 35.052,297.167 34.911 C 297.167 34.771,297.054 34.613,296.917 34.560 C 296.779 34.508,296.667 34.355,296.667 34.222 C 296.667 34.089,296.595 34.024,296.508 34.078 C 296.421 34.132,296.269 34.024,296.169 33.838 C 296.070 33.652,295.822 33.497,295.619 33.493 C 295.416 33.489,295.066 33.264,294.841 32.993 C 294.605 32.709,294.270 32.500,294.049 32.500 C 293.820 32.500,293.667 32.400,293.667 32.250 C 293.667 32.056,293.446 32.000,292.684 32.000 C 291.965 32.000,291.677 31.933,291.606 31.750 C 291.528 31.545,291.115 31.500,289.339 31.500 C 287.519 31.500,287.167 31.459,287.167 31.250 C 287.167 31.031,286.019 31.000,277.833 31.000 C 269.648 31.000,268.500 31.031,268.500 31.250 M246.667 42.917 C 246.667 43.101,246.859 43.167,247.399 43.167 C 247.879 43.167,248.162 43.248,248.222 43.405 C 248.273 43.536,248.524 43.667,248.782 43.696 C 249.047 43.727,249.232 43.840,249.208 43.958 C 249.181 44.093,249.372 44.167,249.750 44.167 C 250.287 44.167,250.333 44.206,250.333 44.667 C 250.333 45.000,250.417 45.167,250.583 45.167 C 250.721 45.167,250.833 45.279,250.833 45.417 C 250.833 45.554,250.946 45.667,251.083 45.667 C 251.278 45.667,251.333 45.889,251.333 46.667 C 251.333 47.444,251.389 47.667,251.583 47.667 C 251.792 47.667,251.833 48.009,251.833 49.745 C 251.833 51.523,251.797 51.809,251.583 51.727 C 251.381 51.649,251.333 51.794,251.333 52.482 C 251.333 53.128,251.273 53.333,251.083 53.333 C 250.917 53.333,250.833 53.500,250.833 53.833 C 250.833 54.167,250.750 54.333,250.583 54.333 C 250.446 54.333,250.333 54.446,250.333 54.583 C 250.333 54.721,250.218 54.833,250.078 54.833 C 249.938 54.833,249.780 54.946,249.727 55.083 C 249.674 55.221,249.527 55.333,249.399 55.333 C 249.271 55.333,249.185 55.427,249.208 55.542 C 249.232 55.660,249.047 55.773,248.782 55.804 C 248.524 55.833,248.273 55.964,248.222 56.095 C 248.162 56.252,247.879 56.333,247.399 56.333 C 246.859 56.333,246.667 56.399,246.667 56.583 C 246.667 56.787,246.389 56.833,245.167 56.833 C 243.944 56.833,243.667 56.787,243.667 56.583 C 243.667 56.398,243.472 56.333,242.917 56.333 C 242.361 56.333,242.167 56.269,242.167 56.083 C 242.167 55.946,242.054 55.833,241.917 55.833 C 241.779 55.833,241.667 55.721,241.667 55.583 C 241.667 55.446,241.554 55.333,241.417 55.333 C 241.279 55.333,241.167 55.221,241.167 55.083 C 241.167 54.946,241.054 54.833,240.917 54.833 C 240.779 54.833,240.667 54.721,240.667 54.583 C 240.667 54.446,240.554 54.333,240.417 54.333 C 240.250 54.333,240.167 54.167,240.167 53.833 C 240.167 53.508,240.082 53.333,239.926 53.333 C 239.757 53.333,239.670 53.097,239.634 52.542 C 239.600 52.017,239.513 51.764,239.375 51.792 C 239.217 51.823,239.167 51.328,239.167 49.750 C 239.167 48.009,239.208 47.667,239.417 47.667 C 239.583 47.667,239.667 47.500,239.667 47.167 C 239.667 46.833,239.750 46.667,239.917 46.667 C 240.083 46.667,240.167 46.500,240.167 46.167 C 240.167 45.833,240.250 45.667,240.417 45.667 C 240.554 45.667,240.667 45.554,240.667 45.417 C 240.667 45.279,240.779 45.167,240.917 45.167 C 241.083 45.167,241.167 45.000,241.167 44.667 C 241.167 44.222,241.222 44.167,241.667 44.167 C 242.000 44.167,242.167 44.083,242.167 43.917 C 242.167 43.779,242.279 43.667,242.417 43.667 C 242.554 43.667,242.667 43.554,242.667 43.417 C 242.667 43.250,242.833 43.167,243.167 43.167 C 243.500 43.167,243.667 43.083,243.667 42.917 C 243.667 42.713,243.944 42.667,245.167 42.667 C 246.389 42.667,246.667 42.713,246.667 42.917 M286.667 45.417 L 286.667 47.167 285.667 47.167 C 284.889 47.167,284.667 47.222,284.667 47.417 C 284.667 47.618,284.407 47.667,283.333 47.667 L 282.000 47.667 282.000 45.667 L 282.000 43.667 284.333 43.667 L 286.667 43.667 286.667 45.417 M87.167 48.667 C 87.167 49.444,87.222 49.667,87.417 49.667 C 87.583 49.667,87.667 49.833,87.667 50.167 C 87.667 50.510,87.749 50.667,87.929 50.667 C 88.088 50.667,88.169 50.780,88.135 50.956 C 88.103 51.122,87.938 51.240,87.748 51.232 C 87.566 51.224,87.023 51.206,86.542 51.192 C 85.739 51.169,85.142 50.667,85.917 50.667 C 86.102 50.667,86.167 50.472,86.167 49.917 C 86.167 49.361,86.231 49.167,86.417 49.167 C 86.602 49.167,86.667 48.972,86.667 48.417 C 86.667 47.861,86.731 47.667,86.917 47.667 C 87.111 47.667,87.167 47.889,87.167 48.667 M172.500 48.417 C 172.500 48.554,172.612 48.667,172.750 48.667 C 172.944 48.667,173.000 48.889,173.000 49.667 C 173.000 50.444,173.056 50.667,173.250 50.667 C 173.387 50.667,173.500 50.779,173.500 50.917 C 173.500 51.111,173.278 51.167,172.500 51.167 L 171.500 51.167 171.500 50.417 C 171.500 49.861,171.565 49.667,171.750 49.667 C 171.935 49.667,172.000 49.472,172.000 48.917 C 172.000 48.361,172.065 48.167,172.250 48.167 C 172.387 48.167,172.500 48.279,172.500 48.417 " stroke="none" fill="#04acf4" fill-rule="evenodd"></path><path id="path1" d="M67.000 10.575 C 67.000 10.717,66.896 10.833,66.768 10.833 C 66.368 10.833,66.333 11.242,66.333 16.018 L 66.333 20.675 66.750 20.833 C 66.979 20.920,67.167 21.106,67.167 21.246 C 67.167 21.474,70.158 21.496,95.292 21.459 L 123.417 21.417 123.461 16.125 L 123.505 10.834 96.211 10.792 C 76.657 10.762,68.926 10.699,68.949 10.569 C 68.969 10.458,68.597 10.373,67.991 10.352 C 67.191 10.323,67.000 10.366,67.000 10.575 " stroke="none" fill="#e54c51" fill-rule="evenodd"></path><path id="path2" d="M121.708 10.444 C 121.358 10.585,121.476 10.792,121.907 10.792 C 122.131 10.792,122.353 10.689,122.402 10.563 C 122.490 10.333,122.134 10.272,121.708 10.444 M123.500 11.833 C 123.500 12.078,123.594 12.278,123.708 12.278 C 123.823 12.278,123.917 12.078,123.917 11.833 C 123.917 11.589,123.823 11.389,123.708 11.389 C 123.594 11.389,123.500 11.589,123.500 11.833 M66.513 21.113 C 66.521 21.288,66.562 21.328,66.610 21.208 C 66.657 21.094,66.761 21.000,66.842 21.000 C 66.923 21.000,66.946 21.112,66.894 21.250 C 66.841 21.387,66.886 21.500,66.994 21.500 C 67.300 21.500,67.116 20.927,66.790 20.865 C 66.597 20.828,66.504 20.910,66.513 21.113 " stroke="none" fill="#4074f8" fill-rule="evenodd"></path><path id="path3" d="M121.708 10.444 C 121.358 10.585,121.476 10.792,121.907 10.792 C 122.131 10.792,122.353 10.689,122.402 10.563 C 122.490 10.333,122.134 10.272,121.708 10.444 M123.500 11.833 C 123.500 12.078,123.594 12.278,123.708 12.278 C 123.823 12.278,123.917 12.078,123.917 11.833 C 123.917 11.589,123.823 11.389,123.708 11.389 C 123.594 11.389,123.500 11.589,123.500 11.833 M66.513 21.113 C 66.521 21.288,66.562 21.328,66.610 21.208 C 66.657 21.094,66.761 21.000,66.842 21.000 C 66.923 21.000,66.946 21.112,66.894 21.250 C 66.841 21.387,66.886 21.500,66.994 21.500 C 67.300 21.500,67.116 20.927,66.790 20.865 C 66.597 20.828,66.504 20.910,66.513 21.113 " stroke="none" fill="#4074f8" fill-rule="evenodd"></path><path id="path4" d="M121.708 10.444 C 121.358 10.585,121.476 10.792,121.907 10.792 C 122.131 10.792,122.353 10.689,122.402 10.563 C 122.490 10.333,122.134 10.272,121.708 10.444 M123.500 11.833 C 123.500 12.078,123.594 12.278,123.708 12.278 C 123.823 12.278,123.917 12.078,123.917 11.833 C 123.917 11.589,123.823 11.389,123.708 11.389 C 123.594 11.389,123.500 11.589,123.500 11.833 M66.513 21.113 C 66.521 21.288,66.562 21.328,66.610 21.208 C 66.657 21.094,66.761 21.000,66.842 21.000 C 66.923 21.000,66.946 21.112,66.894 21.250 C 66.841 21.387,66.886 21.500,66.994 21.500 C 67.300 21.500,67.116 20.927,66.790 20.865 C 66.597 20.828,66.504 20.910,66.513 21.113 " stroke="none" fill="#4074f8" fill-rule="evenodd"></path></g></svg>