<svg xmlns="http://www.w3.org/2000/svg" width="51.4mm" height="11.42mm" viewBox="0 0 145.71 32.37"><defs><style>.cls-1{fill:#004c91;}.cls-1,.cls-3{fill-rule:evenodd;}.cls-2{fill:#fff;}.cls-3{fill:#ce163a;}</style></defs><g id="Layer_2" data-name="Layer 2"><g id="Layer_1-2" data-name="Layer 1"><path class="cls-1" d="M25.8,22.39c.24-5.1-2.53-8.22-6-8.22-3.14,0-5.67,2.82-5.67,7.33,0,4.68,2.85,6.89,5.95,6.89a5.69,5.69,0,0,0,5.55-4.8H20.93c-.09.65-.46,1.13-1,1.13-1,0-1.13-1.23-1.13-2.33m0-2.82c0-.94.35-1.76,1.08-1.76s1.17.84,1.17,1.76Z"/><path class="cls-1" d="M32.07,14.48H27.39v13.6h4.79V21.44c0-.79,0-1.92.8-1.92s.82,1.13.82,1.92v6.64h4.79V19.7c0-3-1-5.53-3.42-5.53-1.54,0-2.25,1-3.17,2.48h-.12"/><polyline class="cls-1" points="56.77 15.24 56.77 14.48 46.61 14.48 46.61 18.76 48.93 18.76 50.03 18.58 50.03 18.69 46.13 27.16 46.13 28.08 56.53 28.08 56.53 23.75 53.8 23.75 52.81 23.9 52.81 23.75 53.84 21.24"/><path class="cls-1" d="M91.05,14.48H86v13.6h5.18V21.44c0-.79,0-1.92.8-1.92s.81,1.13.81,1.92v6.64h4.8V19.7c0-3-1-5.53-3.42-5.53-1.54,0-2.25,1-3.18,2.48h-.11"/><polyline class="cls-1" points="98.98 28.08 103.87 28.08 103.88 21.25 106.18 28.08 111.96 28.08 108.34 20.52 111.88 14.48 106.27 14.48 104.08 20.22 103.77 19.52 103.77 8.89 98.98 8.89"/><path class="cls-1" d="M63.44,16.17V13.43h.35c.75,0,1.69-.11,1.69,1.3s-.83,1.44-1.58,1.44M58.29,28.08h8c2.45,0,5.13-1.36,5.13-5.33a4.63,4.63,0,0,0-2.78-4.58C70.66,17,71,16,71,14.3c0-4-3.79-5.54-5.68-5.54h-7Zm5.15-7.84h.5c.82,0,2.12,0,2.12,1.59s-1.21,1.64-2,1.64h-.58Z"/><path class="cls-1" d="M79.4,28.08h5.14V14.48H79.4l.15,1.61h-.11a3.15,3.15,0,0,0-2.88-1.92c-3.13,0-4.29,3.74-4.29,7.17s1.48,7.05,4.16,7.05c1.35,0,2.13-.82,3-2.1h.11M77,21.21c0-1,.48-2.64,1.25-2.64s1.28,1.54,1.28,2.59S79.31,24,78.4,24,77,22.29,77,21.21"/><path class="cls-1" d="M0,28.08H6.44c4.11,0,7-3.64,7-9.38,0-7.09-3.6-9.94-8.3-9.94H0m5.09,4.7H5.4c1.86,0,3,2.5,3,5.22,0,2.53-1.29,4.63-3,4.63H5.09Z"/><path class="cls-1" d="M40.56,13.24h4.28V9.06H40.56ZM40.3,28.08h4.8V14.48H40.3Z"/><path class="cls-2" d="M117.71,14.06a12.47,12.47,0,0,1,2-4.89l-1.3-1.31a2.22,2.22,0,0,1,0-3.13,2.19,2.19,0,0,1,3.11,0L122.77,6A12.25,12.25,0,0,1,127.7,4V2.23a2.19,2.19,0,1,1,4.37,0v1.7a12.38,12.38,0,0,1,5,2.1l1.16-1.16a2.19,2.19,0,0,1,3.11,0,2.22,2.22,0,0,1,0,3.13l-1.18,1.19a12.47,12.47,0,0,1,2,4.89h1.37a2.21,2.21,0,1,1,0,4.41h-1.38a12.5,12.5,0,0,1-2.07,5l1,1.05a2.22,2.22,0,0,1,0,3.13,2.19,2.19,0,0,1-3.11,0l-1.07-1.07a12.21,12.21,0,0,1-4.86,2v1.62a2.19,2.19,0,1,1-4.37,0V28.51a12.39,12.39,0,0,1-4.79-2l-1.18,1.19a2.2,2.2,0,0,1-3.12,0,2.23,2.23,0,0,1,0-3.13l1.16-1.17a12.48,12.48,0,0,1-2.07-5h-2a2.21,2.21,0,1,1,0-4.41h1.83"/><path class="cls-3" d="M122.62,15.39a7.31,7.31,0,0,1,1.49-3.69l2.62,2.64a3.91,3.91,0,0,0-.42,1.06m-1-5a7.2,7.2,0,0,1,3.51-1.53v3.75a3.8,3.8,0,0,0-.89.41Zm5.28-1.58a7.35,7.35,0,0,1,3.93,1.63l-2.62,2.62a3.51,3.51,0,0,0-1.31-.53Zm5.15,2.9a7.44,7.44,0,0,1,1.45,3.66h-3.7a3.76,3.76,0,0,0-.38-1Zm1.43,5.42a7.41,7.41,0,0,1-1.52,3.64l-2.63-2.63a3.64,3.64,0,0,0,.44-1Zm-2.78,4.89a7.25,7.25,0,0,1-3.79,1.53V19.88a3.69,3.69,0,0,0,1.17-.45Zm-5.55,1.49a7.24,7.24,0,0,1-3.41-1.44l2.63-2.65a3.51,3.51,0,0,0,.77.33Zm-4.68-2.68a7.41,7.41,0,0,1-1.57-3.71h3.71a3.55,3.55,0,0,0,.48,1.09Zm-5.47-3.38h-2.62a1.37,1.37,0,0,1-1.48-1.23A1.38,1.38,0,0,1,116.11,15h2.61a11.32,11.32,0,0,1,2.37-5.83l-1.78-1.79a1.39,1.39,0,0,1-.18-1.92,1.36,1.36,0,0,1,1.91.18l1.77,1.78A11.14,11.14,0,0,1,128.67,5V2.56a1.25,1.25,0,1,1,2.45,0V5A11.17,11.17,0,0,1,137,7.45l1.64-1.66a1.36,1.36,0,0,1,1.91-.18,1.38,1.38,0,0,1-.18,1.92L138.75,9.2A11.32,11.32,0,0,1,141.12,15h2.16a1.38,1.38,0,0,1,1.48,1.24,1.37,1.37,0,0,1-1.48,1.23h-2.17a11.39,11.39,0,0,1-2.46,5.89L140.26,25a1.25,1.25,0,1,1-1.73,1.74l-1.63-1.64a11.09,11.09,0,0,1-5.78,2.38v2.42a1.25,1.25,0,1,1-2.45,0V27.5a11.28,11.28,0,0,1-5.72-2.37l-1.75,1.75a1.35,1.35,0,0,1-1.9.18,1.38,1.38,0,0,1,.17-1.92l1.73-1.75a11.36,11.36,0,0,1-2.46-5.89"/></g></g></svg>