<?xml version="1.0" encoding="UTF-8" standalone="no"?>
<!-- Created with Inkscape (http://www.inkscape.org/) -->

<svg
   xmlns:dc="http://purl.org/dc/elements/1.1/"
   xmlns:cc="http://creativecommons.org/ns#"
   xmlns:rdf="http://www.w3.org/1999/02/22-rdf-syntax-ns#"
   xmlns:svg="http://www.w3.org/2000/svg"
   xmlns="http://www.w3.org/2000/svg"
   xmlns:sodipodi="http://sodipodi.sourceforge.net/DTD/sodipodi-0.dtd"
   xmlns:inkscape="http://www.inkscape.org/namespaces/inkscape"
   width="157.40266mm"
   height="49.418259mm"
   viewBox="0 0 157.40266 49.418259"
   version="1.1"
   id="svg8"
   sodipodi:docname="Türkiye_İş_Bankası_logo.svg"
   inkscape:version="0.92.3 (2405546, 2018-03-11)">
  <defs
     id="defs2" />
  <sodipodi:namedview
     id="base"
     pagecolor="#00ffff"
     bordercolor="#666666"
     borderopacity="1.0"
     inkscape:pageopacity="0"
     inkscape:pageshadow="2"
     inkscape:zoom="0.98994949"
     inkscape:cx="123.49222"
     inkscape:cy="-1.7976375"
     inkscape:document-units="mm"
     inkscape:current-layer="layer1"
     showgrid="false"
     inkscape:window-width="1920"
     inkscape:window-height="1001"
     inkscape:window-x="-9"
     inkscape:window-y="-9"
     inkscape:window-maximized="1"
     fit-margin-top="0"
     fit-margin-left="0"
     fit-margin-right="0"
     fit-margin-bottom="0" />
  <metadata
     id="metadata5">
    <rdf:RDF>
      <cc:Work
         rdf:about="">
        <dc:format>image/svg+xml</dc:format>
        <dc:type
           rdf:resource="http://purl.org/dc/dcmitype/StillImage" />
        <dc:title></dc:title>
      </cc:Work>
    </rdf:RDF>
  </metadata>
  <g
     inkscape:label="Layer 1"
     inkscape:groupmode="layer"
     id="layer1"
     transform="translate(-12.734993,-84.199)">
    <path
       id="path671"
       d="m 112.95023,111.15275 c 0,0.76156 -0.5061,1.25552 -1.58238,1.25552 h -2.94686 v -2.49526 h 2.94686 c 1.07628,8.2e-4 1.58238,0.4164 1.58238,1.23974 m -0.34731,-3.85484 c 0,0.53752 -0.33313,0.90922 -1.25063,0.90922 h -2.92988 v -1.83177 h 2.81608 c 0.96976,0 1.36443,0.31711 1.36443,0.92255 m 2.62965,3.82944 c 0,-1.05935 -0.66468,-1.7628 -1.55331,-2.10664 0.73126,-0.38482 1.17315,-1.04846 1.17315,-1.87537 0,-1.65138 -1.36205,-2.54852 -3.51586,-2.54852 h -5.08735 v 9.64441 h 5.03894 c 2.37656,0 3.94443,-1.08842 3.94443,-3.11388 m 6.90946,-0.86566 h -2.53763 l 0.71429,-1.75187 c 0.22284,-0.56297 0.44203,-1.14172 0.55332,-1.50129 0.11394,0.35966 0.33312,0.93832 0.55568,1.50129 z m 4.07156,3.97954 -4.21565,-9.64441 h -2.15381 l -4.24471,9.64441 h 2.37419 l 0.87289,-2.14897 h 4.05586 l 0.87047,2.14897 z m 9.93498,0 v -9.64441 h -2.18772 v 4.08007 c 0,0.53634 0.032,1.74825 0.032,2.10782 -0.14414,-0.24801 -0.51094,-0.73127 -0.77849,-1.08964 l -3.9297,-5.09825 h -2.12115 v 9.64441 h 2.1853 v -4.24228 c 0,-0.53753 -0.032,-1.75064 -0.032,-2.10902 0.14185,0.24802 0.50608,0.73127 0.77607,1.08842 l 4.07155,5.26169 h 1.98185 z m 30.06163,-2.92018 c 0,-2.09332 -1.94803,-2.61753 -3.70837,-2.97591 -1.75672,-0.35966 -2.23252,-0.55208 -2.23252,-1.15861 0,-0.42601 0.3949,-0.86685 1.58476,-0.86685 1.01461,0 1.80394,0.35829 2.51828,0.99031 l 1.59812,-1.3475 c -1.04485,-0.9516 -2.31246,-1.51819 -4.03888,-1.51819 -2.18772,0 -3.96018,1.0751 -3.96018,2.82698 0,1.89957 1.4262,2.46496 3.46864,2.8778 2.09327,0.41411 2.47343,0.68771 2.47343,1.30756 0,0.72884 -0.61746,1.04727 -1.93467,1.04727 -1.06179,0 -2.05942,-0.31986 -2.83548,-1.10173 l -1.60054,1.23855 c 0.84145,1.07386 2.4565,1.74945 4.31128,1.74945 3.02433,0.002 4.35613,-1.23737 4.35613,-3.06913 m 3.92746,-6.72299 h -2.21796 v 9.64317 h 2.21796 z m -17.31414,3.91176 c -0.22285,-0.56297 -0.44433,-1.14172 -0.55575,-1.50129 -0.11119,0.35966 -0.33312,0.93832 -0.55326,1.50129 l -0.71429,1.75187 h 2.53516 z m -4.8755,5.73141 h -0.95525 -1.70707 l -3.00978,-4.65512 -1.77369,1.81726 v 2.83786 h -2.21797 v -9.64441 h 2.21797 v 2.74222 c 0,0.35829 -0.0183,1.22647 -0.032,1.53155 0.15879,-0.22285 0.57024,-0.66222 0.87052,-0.97947 l 3.10664,-3.2943 h 2.67564 l -3.24707,3.3343 3.50496,5.43118 3.85971,-8.76548 h 2.1538 l 4.21323,9.64441 h -2.44076 l -0.87312,-2.14897 h -4.05582 l -0.87051,2.14897 z M 55.177174,102.75051 c 0,-0.68405 0.555686,-1.23975 1.242163,-1.23975 0.684041,0 1.239735,0.5557 1.239735,1.23975 0,0.68404 -0.555694,1.23978 -1.239735,1.23978 -0.686477,8.2e-4 -1.242163,-0.5545 -1.242163,-1.23978 m -23.448778,7.23393 v -5.38762 h -2.219209 v 5.41544 c 0,1.54124 -0.871703,2.49284 -2.279739,2.49284 -1.409274,0 -2.266423,-0.97704 -2.266423,-2.52066 v -5.38762 h -2.215591 v 5.41544 c 0,2.80885 1.805135,4.37911 4.483204,4.37911 2.81731,0.002 4.497758,-1.61145 4.497758,-4.40693 m -7.420361,-7.25087 c 0,-0.68523 0.555695,-1.24216 1.240974,-1.24216 0.68281,0 1.239743,0.55693 1.239743,1.24216 0,0.68281 -0.556933,1.23856 -1.239743,1.23856 -0.685279,8.1e-4 -1.240974,-0.55451 -1.240974,-1.23856 m 3.412951,0 c 0,-0.68523 0.553274,-1.24216 1.239743,-1.24216 0.684041,0 1.238546,0.55693 1.238546,1.24216 0,0.68281 -0.554505,1.23856 -1.238546,1.23856 -0.686469,8.1e-4 -1.239743,-0.55451 -1.239743,-1.23856 m 50.159147,11.50766 v -1.88746 h -5.719328 v -2.32696 h 3.186588 v -1.87418 h -3.186588 v -1.66831 h 5.483253 v -1.8875 h -7.698795 v 9.64322 h 7.93487 z m -8.759391,-9.64317 h -2.518234 l -1.569068,2.2882 c -0.411824,0.60534 -0.996391,1.52788 -1.203407,1.88626 -0.205908,-0.35828 -0.806357,-1.30874 -1.204686,-1.88626 l -1.567829,-2.2882 h -2.549715 l 4.198675,5.86946 v 3.77371 h 2.21801 v -3.81609 z m -15.07559,9.64317 -4.070369,-6.31011 3.247119,-3.33306 h -2.678069 l -3.104219,3.29187 c -0.300175,0.31848 -0.7131,0.75909 -0.871703,0.98066 0.01377,-0.30522 0.03203,-1.17316 0.03203,-1.53031 v -2.74222 h -2.219022 v 9.64317 h 2.219209 v -2.83786 l 1.774878,-1.81726 3.008591,4.65512 z m -13.639686,-6.54499 c 0,0.84021 -0.554505,1.25429 -1.583622,1.25429 h -2.90082 v -2.48076 h 2.90082 c 0.981894,0 1.583622,0.35829 1.583622,1.22647 m 2.280929,6.54499 -2.122334,-3.74832 c 1.409226,-0.47941 2.122334,-1.38987 2.122334,-2.83663 0,-2.05213 -1.727663,-3.05822 -3.817327,-3.05822 h -5.164816 v 9.64317 h 2.21801 v -3.47107 h 2.233706 l 1.980712,3.47107 z m -21.36274,-7.74117 v -1.902 h -8.588662 v 1.902 h 3.185301 v 7.74117 h 2.218011 v -7.74117 z m 36.203453,-1.902 h -2.21797 v 9.64317 h 2.21797 z m 28.474398,20.59879 c 0.295596,0.0691 1.776076,0.5799 1.776076,0.5799 1.090837,0.45886 1.998869,0.78696 3.011011,0.9698 -0.870472,0.43243 -1.471003,1.33177 -1.471003,2.37172 0,1.11871 0.694936,1.98918 1.673204,2.33667 0.387581,0.18898 0.434706,0.32808 0.545997,0.67434 0.09426,0.2956 -0.214155,1.48798 -0.214155,1.48798 h 0.685287 c 0,0 0.444315,-0.54846 1.066627,-1.40928 0.272265,-0.3743 0.690087,-1.13078 0.93828,-1.46614 0.33313,-0.48912 0.602918,-0.95526 0.602918,-1.62233 0,-0.91531 -0.466097,-1.72163 -1.168309,-2.19861 0.161072,-0.005 0.19859,-0.0138 0.19859,-0.0138 1.530311,-0.0897 2.949242,-0.67439 2.949242,-0.67439 4.862169,-1.65014 5.971179,-5.94208 5.971179,-5.94208 0.19127,-0.72642 0.29789,-1.49159 0.29789,-2.27974 0,-2.60788 -1.38141,-4.95662 -3.182925,-6.57409 0,0 -0.555694,-0.53634 -1.014562,-0.8729 -0.945558,-0.73612 -3.977161,-2.3524 -3.977161,-2.3524 0,0 -5.092201,-2.76643 -6.3755,-3.56794 -1.282159,-0.80169 -1.887497,-1.43247 -1.887497,-1.43247 -0.983075,-0.84022 -1.615101,-1.98309 -1.615101,-3.433503 0,-2.254346 2.035213,-3.829443 4.40697,-4.227772 0,0 0.162442,-0.01834 0.393522,-0.03203 v 8.634705 l 4.653933,2.56788 V 93.368855 c 0.03659,-0.345019 -0.123547,-1.523075 1.130783,-1.859627 l 0.68281,-0.179375 v -0.662267 h -8.27993 v 0.662267 l 0.651331,0.172057 c 1.289387,0.326717 1.123555,1.519408 1.161073,1.868094 v 0.891057 c -0.192642,0.01369 -0.397181,0.02746 -0.578707,0.06177 -4.166005,0.588413 -7.202447,3.879054 -7.202447,7.856209 0,2.96136 1.406846,4.81495 3.650255,6.499 1.164691,0.87536 1.956502,1.2531 3.360879,2.02309 l 0.77121,0.42876 v 8.43976 c -0.03659,0.35006 0.124923,1.5255 -1.129545,1.86087 l -0.684049,0.18394 v 0.65984 h 8.27993 v -0.65984 l -0.652561,-0.17296 c -1.288197,-0.32809 -1.123514,-1.52065 -1.158653,-1.87295 l -0.0024,-5.84282 0.905562,0.50847 c 0,0 2.726522,1.32695 3.776183,3.72896 1.054507,2.402 0.366988,5.84767 -3.833063,7.35863 0,0 -4.997754,1.55331 -9.528181,-2.69139 0,0 -1.563021,-1.6393 -2.334237,-3.84034 -0.121256,-0.34273 -0.260367,-0.89591 -0.260367,-0.89591 h -0.65499 v 8.36106 h 0.555743 c 0,0 0.334035,-0.48669 0.622272,-0.72157 0.07644,-0.0641 0.133154,-0.1089 0.203626,-0.15145 0.365609,-0.22285 0.891055,-0.5109 2.186521,-0.21553 z M 100.12793,95.097699 v -0.386204 h -0.600538 l -0.317109,0.48184 c -0.288278,0.367894 -0.548418,0.498815 -1.104161,0.558164 -0.642856,0.07277 -1.468525,-0.277301 -1.468525,-0.277301 l -1.218002,-0.486689 v 1.230038 c 0.527866,0.296516 0.763982,0.53634 1.021831,0.725233 0.319856,0.237484 0.823291,0.728834 1.414124,1.523025 0.590792,0.79542 1.024219,1.805175 1.165889,2.234945 0.104323,0.31253 0.243434,0.97342 0.309783,1.35601 l 0.08236,0.51332 h 0.714298 z M 89.23769,86.900082 c 0,1.490365 1.209494,2.70104 2.699851,2.70104 1.492785,0 2.70351,-1.210675 2.70351,-2.70104 0,-1.491587 -1.210725,-2.701082 -2.70351,-2.701082 -1.490357,0 -2.699851,1.209495 -2.699851,2.701082"
       inkscape:connector-curvature="0"
       style="fill:#00559f;stroke-width:1.21069694" />
  </g>
</svg>
