<?xml version="1.0" encoding="UTF-8" standalone="no"?>
<!-- Created with Inkscape (http://www.inkscape.org/) -->

<svg
   xmlns:dc="http://purl.org/dc/elements/1.1/"
   xmlns:cc="http://creativecommons.org/ns#"
   xmlns:rdf="http://www.w3.org/1999/02/22-rdf-syntax-ns#"
   xmlns:svg="http://www.w3.org/2000/svg"
   xmlns="http://www.w3.org/2000/svg"
   xmlns:sodipodi="http://sodipodi.sourceforge.net/DTD/sodipodi-0.dtd"
   xmlns:inkscape="http://www.inkscape.org/namespaces/inkscape"
   width="149.41885mm"
   height="18.053637mm"
   viewBox="0 0 149.41885 18.053637"
   version="1.1"
   id="svg8"
   sodipodi:docname="Vakıfbank_logo.svg"
   inkscape:version="0.92.3 (2405546, 2018-03-11)">
  <defs
     id="defs2" />
  <sodipodi:namedview
     id="base"
     pagecolor="#00ffff"
     bordercolor="#666666"
     borderopacity="1.0"
     inkscape:pageopacity="0"
     inkscape:pageshadow="2"
     inkscape:zoom="0.49497475"
     inkscape:cx="32.254574"
     inkscape:cy="-82.928703"
     inkscape:document-units="mm"
     inkscape:current-layer="layer1"
     showgrid="false"
     inkscape:window-width="1920"
     inkscape:window-height="1001"
     inkscape:window-x="-9"
     inkscape:window-y="-9"
     inkscape:window-maximized="1"
     fit-margin-top="0"
     fit-margin-left="0"
     fit-margin-right="0"
     fit-margin-bottom="0" />
  <metadata
     id="metadata5">
    <rdf:RDF>
      <cc:Work
         rdf:about="">
        <dc:format>image/svg+xml</dc:format>
        <dc:type
           rdf:resource="http://purl.org/dc/dcmitype/StillImage" />
        <dc:title></dc:title>
      </cc:Work>
    </rdf:RDF>
  </metadata>
  <g
     inkscape:label="Layer 1"
     inkscape:groupmode="layer"
     id="layer1"
     transform="translate(-27.120262,-129.53205)">
    <g
       id="g697"
       transform="matrix(1.356331,0,0,1.356331,20.338607,122.74991)">
      <path
         id="path681"
         d="M 24.687,8.707 C 24.939,7.271 23.617,5.27 20.018,5.27 H 11.075 C 8.624,5.27 7.087,6.953 6.814,8.648 L 5,18.184 c 1.593,-0.004 12.089,0 12.067,0 h 0.682 c 3.759,-0.021 5.923,-0.865 6.318,-3.593 0.262,-1.836 -1.35,-3.021 -2.667,-3.273 1.332,-0.243 2.951,-0.696 3.287,-2.611 z"
         inkscape:connector-curvature="0"
         style="fill:#fbc34e" />
      <path
         id="path683"
         d="m 16.289,9.266 c -0.912,1.155 -4.227,5.164 -4.897,5.925 -1.497,1.703 -4.584,1.449 -4.605,1.406 0,-0.002 1.113,-5.265 1.474,-6.749 0.989,-4.035 4.401,-3.08 4.401,-3.08 0,0 -0.909,0.131 -1.551,0.95 -0.651,0.83 -1.389,4.874 -1.806,6.764 1.955,-2.285 4.635,-5.233 5.092,-5.785 1.948,-2.358 4.999,-2.033 4.999,-2.033 0,0 -1.188,0.166 -3.107,2.602 z"
         inkscape:connector-curvature="0"
         style="fill:#ffffff" />
      <path
         id="path685"
         d="M 36.042,18.184 43.112,5.269 H 40.644 L 35.457,15.398 34.115,5.269 h -2.791 l 2.394,12.915 z m 10.935,-5.075 -0.75,4.063 c -0.461,0.037 -0.734,0.033 -1.549,0.017 -1.2,-0.026 -2.248,-0.521 -2.059,-1.733 0.26,-1.677 1.88,-2.16 4.358,-2.347 m 2.646,-1.176 c 0.448,-2.394 -1.404,-3.299 -3.652,-3.299 -1.468,0 -2.29,0.187 -3.16,0.544 l -0.731,1.427 c 1.072,-0.45 2.222,-0.583 3.187,-0.583 1.335,0 2.228,0.38 2.004,1.586 l -0.095,0.497 c -3.64,0.201 -6.577,1.033 -6.958,3.348 -0.275,1.668 1.482,2.856 4.4,2.856 1.515,0 2.827,-0.069 3.834,-0.146 z m 6.568,1.21 4.734,-4.254 h -2.622 l -4.46,4.245 1.481,-7.865 H 52.863 L 50.43,18.184 h 2.475 l 0.894,-4.791 2.953,4.776 h 2.897 z m 6.762,5.026 1.746,-9.28 h -2.338 l -1.743,9.28 z M 73.652,5.646 C 73.945,5.356 74.451,5.209 74.451,5.209 71.564,4.55 68.426,5.465 67.93,7.771 L 67.723,8.89 h -1.604 l -0.252,1.343 h 1.604 l -1.492,7.938 h 2.459 l 1.492,-7.938 h 1.862 L 72.053,8.89 H 70.18 l 0.135,-0.702 c 0.226,-1.189 0.638,-2.305 2.98,-1.925 0,-0.001 0.078,-0.354 0.357,-0.617 m 7.51,3.021 c -0.252,1.331 -1.287,2.119 -4.012,2.044 -0.785,-0.019 -0.978,-0.063 -0.978,-0.063 l 0.767,-4.052 c 0.504,-0.192 0.985,-0.299 1.699,-0.299 1.85,0 2.819,0.791 2.524,2.37 m -5.182,3.208 0.754,-0.025 c 3.063,-0.104 3.967,1.134 3.619,2.771 -0.334,1.565 -1.687,2.223 -3.519,2.223 -0.762,0 -1.16,-0.002 -1.821,-0.033 z m 7.817,-3.334 c 0.262,-1.478 -1.164,-3.539 -4.875,-3.539 -1.854,0 -4.363,0.424 -4.629,1.826 l -2.111,11.335 c 1.273,0.146 2.523,0.146 4.465,0.131 3.875,-0.02 6.105,-0.891 6.513,-3.696 0.271,-1.89 -1.392,-3.109 -2.748,-3.369 1.369,-0.251 3.039,-0.717 3.385,-2.688 m 6.877,4.568 -0.754,4.063 c -0.457,0.037 -0.73,0.033 -1.549,0.017 -1.201,-0.026 -2.246,-0.521 -2.055,-1.733 0.256,-1.677 1.881,-2.16 4.358,-2.347 m 2.64,-1.176 c 0.451,-2.394 -1.4,-3.299 -3.65,-3.299 -1.467,0 -2.303,0.184 -3.176,0.541 l -0.717,1.434 c 1.074,-0.444 2.225,-0.585 3.188,-0.585 1.334,0 2.232,0.38 2.004,1.586 l -0.094,0.497 c -3.637,0.201 -6.576,1.033 -6.957,3.348 -0.271,1.668 1.484,2.856 4.398,2.856 1.516,0 2.828,-0.069 3.834,-0.146 z m 10.766,-0.356 c 0.283,-1.501 -0.586,-2.846 -3.994,-2.846 -1.922,0 -3.34,0.308 -4.498,0.72 l -1.65,8.732 h 2.498 l 1.459,-7.793 c 0.506,-0.186 0.994,-0.328 1.842,-0.328 1.627,0 2.031,0.768 1.892,1.526 l -1.237,6.595 h 2.426 z m 4.055,1.53 -0.045,-0.012 1.471,-7.827 h -2.465 l -2.43,12.897 h 2.477 l 0.885,-4.717 h 0.039 l 2.92,4.733 h 2.896 l -3.452,-5.024 4.733,-4.255 h -2.621 z"
         inkscape:connector-curvature="0" />
    </g>
  </g>
</svg>
