<svg id="Layer_1" data-name="Layer 1" xmlns="http://www.w3.org/2000/svg" width="398.01" height="69.85" viewBox="0 0 398.01 69.85"><title>Yapi Kredi logo - Brandlogos.net</title><path d="M318.91,371.43c-7.52-21.06-28.36-22.35-30.51-22.35a37.83,37.83,0,0,0-27.72,11c-3.22,2.79-5.37,6.23-8,9.88h0a50.15,50.15,0,0,0-8-9.88,37.36,37.36,0,0,0-27.51-11c-2.15,0-23.42,1.29-30.73,22.35a33,33,0,0,0,1.93,24.71c3.87,8.38,13.11,15,22.78,14.4,7.09-.21,14.83-4.73,17.62-12,2.36-6.45,1.72-13.54-3.87-19.12a6.71,6.71,0,0,1-1.07,5.16c-2.15,3-5.8,3.87-9.45,2.58-3.22-1.5-4.51-3.87-4.08-6.88a7.14,7.14,0,0,1,4.51-5.59c4.3-1.93,8.17-.86,12,2.79,6.23,7.09,7.09,17.84,10.1,25.79,2.15,6.66,5.37,12.46,12.89,14.18a5.9,5.9,0,0,0,2.79.43h0a12.25,12.25,0,0,0,2.79-.21c7.31-1.72,10.74-7.52,12.89-14.18,3-8.17,3.65-18.91,10.1-25.79,3.87-3.65,7.74-4.73,12-2.79,2.15,1.07,4.3,3,4.51,5.59a6.41,6.41,0,0,1-4.08,6.88c-3.65,1.29-7.09.64-9.45-2.58a6.15,6.15,0,0,1-1.07-5.16c-5.59,5.59-6.23,12.68-3.87,19.12,2.79,7.31,10.53,11.82,17.62,12,9.88.64,19.12-6,22.78-14.4A33.62,33.62,0,0,0,318.91,371.43Zm-14.83,25.36c-4.51,3.87-10.31,5.16-15.26,2.79-2.79-1.5-5.16-3.87-5.59-6.45,4.08,4.08,11.39,6.23,18.05-1.07,0,0,6.23-5.8,2.79-17-1.72-5.37-8.38-9.88-14-10.53a21.39,21.39,0,0,0-21.49,9c-6.23,9.88-7.09,20.84-11.6,31.8a4.42,4.42,0,0,1-4.08,2.58h0a4.1,4.1,0,0,1-4.08-2.58c-4.51-11-5.37-21.92-11.82-31.8a21.63,21.63,0,0,0-21.49-8.81c-5.59.64-12.25,5.16-14,10.53-3.65,11,2.58,16.76,2.58,16.76,6.66,7.09,14,5.16,18.05,1.07a10.28,10.28,0,0,1-5.59,6.45c-4.73,2.15-10.74,1.07-15.26-2.79-6.66-6.45-7.52-15-4.94-22.78,3.22-9.45,12.68-14.18,20.2-14.61,9-.86,21.27,4.73,26.22,14,1.07,2.15,3.65,7.74,3.65,7.74H259s2.36-5.59,3.65-7.74c4.94-9.45,17.19-14.83,26.22-14,7.52.64,17,5.37,20.2,14.61C311.61,381.75,310.75,390.13,304.08,396.79Z" transform="translate(-184.99 -349.08)" style="fill:#a6a8ab"/><path d="M571.62,359.83v-9.24H583v9.24Z" transform="translate(-184.99 -349.08)" style="fill:#004180"/><path d="M347.28,383.47v24.93H334.38V383.47l-11.17-32.66h13.54l4.08,16.12,4.3-16.12h13.54Z" transform="translate(-184.99 -349.08)" style="fill:#004180"/><path d="M372.42,408.39l-.43-2.15c-1.93,2.15-4.08,3.22-8.6,3.22-4.73,0-8.17-4.3-8-9.45v-7.52c.21-12,16.55-8.38,16.55-17.41,0-1.93,0-3.44-2.15-3.44s-2.58,1.5-2.58,3.44v3.65h-11.6v-3.65c0-8,6.66-11.6,14.4-11.6,9.67,0,14.18,5.37,14.18,11.39v33.31l-11.82.21ZM372,386.26c-2.79,1.72-4.73,2.58-4.73,6.23v5.37c0,2.58.64,3.65,2.36,3.65s2.36-.86,2.36-3.44Z" transform="translate(-184.99 -349.08)" style="fill:#004180"/><path d="M418.19,396.58c0,6.88-1.07,12.68-8.81,12.68-4.3,0-6.66-1.5-8.38-3.87v13.54H389.61V364.56H401v4.51c2.15-4.08,4.73-5.37,9-5.37,6.23,0,8.38,5.8,8.38,11.6l-.21,21.27Zm-12.25-20.41c0-1.93-1.07-3-2.58-3s-2.58,1.07-2.58,3.22V397c0,1.93,1.07,3,2.58,3s2.58-1.07,2.58-3.22Z" transform="translate(-184.99 -349.08)" style="fill:#004180"/><path d="M423.56,408.39V364.56h11.39v43.62l-11.39.21Z" transform="translate(-184.99 -349.08)" style="fill:#004180"/><path d="M462.88,408.18,455.58,388l-1.72,3.22v17H441V350.59h12.89v17.84L462,350.59H474.7l-11.82,24.28,12.68,33.31Z" transform="translate(-184.99 -349.08)" style="fill:#004180"/><path d="M500.49,376.59c-2.79-1.07-10.53-1.07-10.53,5.8v26H478.57V364.56H489.1v4.73c3.87-5.59,8.17-5.8,11.17-5.8l.21,13.11Z" transform="translate(-184.99 -349.08)" style="fill:#004180"/><path d="M532.29,397.22c0,8.81-6,12-14.18,12-7.52,0-14.18-3.65-14.18-12.25V376.59c0-8.38,5.16-12.89,14.18-12.89,7.52,0,14.18,3,14.18,13.11v11.6H515.53v10.53c0,1.72.86,2.79,2.58,2.79s2.58-1.07,2.58-2.79v-6.45h11.82l-.21,4.73Zm-11.82-22.78c0-1.72-.86-2.79-2.36-2.79-1.72,0-2.58,1.07-2.58,2.79v5.8h4.94Z" transform="translate(-184.99 -349.08)" style="fill:#004180"/><path d="M554.64,408.39v-4.51c-1.07,3.87-4.73,5.37-8.81,5.37-7.09,0-8.38-5.8-8.38-11.6V376.38c0-6.88,1.72-12.89,8.81-12.89,4.08,0,7.31,1.72,8.6,3.87V350.81h11.39v57.59Zm0-32.66c0-1.93-1.07-3-2.58-3s-2.58,1.07-2.58,3v20.84c0,1.93,1.07,3,2.58,3s2.58-1.07,2.58-3.22V375.73Z" transform="translate(-184.99 -349.08)" style="fill:#004180"/><path d="M571.62,408.39V364.77H583v43.62Z" transform="translate(-184.99 -349.08)" style="fill:#004180"/></svg>